<?xml version="1.0" encoding="utf-8"?>
<!-- Generator: Adobe Illustrator 15.1.0, SVG Export Plug-In . SVG Version: 6.00 Build 0)  -->
<!DOCTYPE svg PUBLIC "-//W3C//DTD SVG 1.1//EN" "http://www.w3.org/Graphics/SVG/1.1/DTD/svg11.dtd">
<svg version="1.1" id="logo" xmlns="http://www.w3.org/2000/svg" xmlns:xlink="http://www.w3.org/1999/xlink" x="0px" y="0px"
	 width="220px" height="70px" viewBox="0 0 220 70" enable-background="new 0 0 220 70" xml:space="preserve">
<path fill="#65B534" d="M31.572,66.778L0.888,36.112c-0.608-0.606-0.608-1.592,0-2.2l30.684-30.69c0.608-0.608,1.593-0.608,2.201,0
	l30.684,30.666c0.608,0.608,0.608,1.593,0,2.201L33.773,66.778C33.165,67.386,32.18,67.386,31.572,66.778L31.572,66.778
	L31.572,66.778z"/>
<path fill="none" stroke="#E34036" stroke-width="1.3569" stroke-miterlimit="3.8636" d="M31.572,66.778L0.888,36.112
	c-0.608-0.606-0.608-1.592,0-2.2l30.684-30.69c0.608-0.608,1.593-0.608,2.201,0l30.684,30.666c0.608,0.608,0.608,1.593,0,2.201
	L33.773,66.778C33.165,67.386,32.18,67.386,31.572,66.778L31.572,66.778L31.572,66.778z"/>
<path fill="#FFFFFF" d="M15.968,34.07c-0.146-8.407,6.549-15.342,14.957-15.487c4.872-0.085,9.25,2.128,12.099,5.642l-6.765,4.18
	c-1.374-1.312-3.245-2.104-5.292-2.068c-4.13,0.072-7.419,3.478-7.346,7.608c0.073,4.128,3.479,7.417,7.608,7.347
	c2.664-0.047,4.977-1.48,6.265-3.601h-4.694l0-6.094h16.526L49.31,47.784h-6.298v-4.379c-2.735,3.363-6.879,5.542-11.552,5.624
	C23.051,49.174,16.116,42.477,15.968,34.07L15.968,34.07z"/>
<path fill="#E34036" d="M120.227,42.627h7.868l2.544-9.078c0.357-1.375,1.351-2.353,3.297-2.353c1.273,0,1.988,0.459,1.988,1.466
	c0,0.428-0.198,1.07-0.318,1.468l-2.384,8.497h7.868l2.703-9.597c0.317-1.163,1.431-1.834,2.98-1.834
	c1.271,0,2.026,0.519,2.026,1.528c0,0.459-0.397,2.018-0.477,2.323l-2.107,7.58h7.87l2.503-9.047
	c0.159-0.704,0.476-1.772,0.476-2.507c0-3.27-2.582-4.707-6.596-4.707c-2.742,0-5.047,0.978-6.756,2.628
	c-0.517-1.956-2.861-2.628-5.564-2.628c-2.623,0-4.888,0.978-6.478,2.476h-0.079l0.557-2.079h-7.631L120.227,42.627L120.227,42.627z
	"/>
<path fill="#E34036" d="M165.821,31.563c0.438-1.192,1.551-1.62,3.141-1.62c1.192,0,2.464,0.276,2.464,1.375
	c0,1.956-3.537,1.712-5.762,1.834c-5.921,0.336-9.976,1.467-9.976,5.655c0,3.025,3.141,4.218,6.677,4.218
	c2.305,0,4.968-0.642,6.358-1.925h0.079c-0.039,0.519,0.079,1.038,0.278,1.527h7.71c-0.318-0.733-0.159-0.184-0.318-1.406
	c0-1.039,2.504-8.161,2.504-10.636c0-3.851-6.278-4.218-10.015-4.218c-5.048,0-9.3,0.978-10.532,5.196H165.821L165.821,31.563z
	 M163.558,38.073c0-1.16,1.231-1.68,2.543-1.771c1.431-0.093,2.901-0.214,4.173-0.703c-0.478,2.354-1.55,3.851-4.213,3.851
	C164.789,39.449,163.558,39.173,163.558,38.073L163.558,38.073z"/>
<path fill="#E34036" d="M177.14,42.627h7.868l1.789-6.632c0.914-3.333,2.703-4.501,6.042-4.501c0.993,0,2.537,0,3.585,0l1.466-4.732
	c-0.849,0-2.234,0-3.546,0c-2.027,0-4.527,0.797-5.918,2.479h-0.08l0.676-2.476h-7.63L177.14,42.627L177.14,42.627z"/>
<path fill="#E34036" d="M208.756,21.967h-7.868l-1.392,4.798h-3.418l-1.258,4.729h3.497l-1.683,5.508
	c-0.199,0.734-0.438,1.315-0.438,2.171c0,1.162,0.795,2.415,2.146,2.995c1.512,0.643,3.299,0.643,4.968,0.643
	c1.431-0.063,2.861-0.215,4.252-0.397l1.192-4.371c-0.637,0.03-1.312,0.093-2.583,0.093c-1.231,0-1.59-0.428-1.59-0.947
	c0-0.521,0.198-1.07,0.358-1.59l1.244-4.104h4.172l1.474-4.729h-4.466L208.756,21.967L208.756,21.967z"/>
<path fill="#65B534" d="M100.537,26.708l-3.498,13.112c-1.193,4.463-2.264,8.283-12.24,8.283c-2.424,0-9.815-0.215-9.538-5.287
	h7.789c0,0.609,0.199,1.038,0.635,1.375c0.397,0.243,1.035,0.336,1.83,0.336c2.384,0,2.979-1.406,3.377-2.813l0.477-1.68H89.29
	c-1.192,1.038-3.02,1.588-4.928,1.588c-4.927,0-8.067-2.414-8.067-6.173c0-4.523,3.498-9.139,9.935-9.139
	c2.544,0,4.888,0.581,6.12,2.445h0.079l0.517-2.048H100.537L100.537,26.708z M88.297,30.713c-3.101,0-4.133,2.627-4.133,4.493
	c0,1.405,0.914,2.536,2.702,2.536c3.736,0,4.371-3.483,4.371-4.554C91.237,32.21,91.118,30.713,88.297,30.713L88.297,30.713z"/>
<path fill="#65B534" d="M99.116,35.542c0,5.318,4.609,7.428,10.292,7.428c9.499,0,12.439-5.654,12.439-9.72
	c0-4.799-3.975-6.938-10.015-6.938C103.407,26.312,99.116,30.468,99.116,35.542L99.116,35.542z M106.983,36
	c0-1.651,1.114-5.288,4.253-5.288c2.105,0,2.74,1.069,2.74,2.965c0,1.375-1.111,4.889-4.211,4.889
	C107.54,38.567,106.983,37.284,106.983,36L106.983,36z"/>
<path fill="#E34036" d="M31.962,66.389c0.392,0.391,1.028,0.391,1.421,0l30.684-30.69c0.393-0.394,0.393-1.029,0-1.421L33.383,3.611
	c-0.393-0.393-1.029-0.393-1.421,0L1.278,34.302c-0.393,0.392-0.393,1.029,0,1.42L31.962,66.389L31.962,66.389z M1.193,35.807
	c-0.439-0.439-0.439-1.15,0-1.59l30.685-30.69c0.438-0.439,1.151-0.439,1.59,0l30.683,30.667c0.439,0.439,0.439,1.15,0,1.589
	l-30.683,30.69c-0.44,0.438-1.152,0.438-1.59,0L1.193,35.807L1.193,35.807z"/>
<path fill="#E34036" d="M216.775,24.589h0.301c0.352,0,0.636-0.117,0.636-0.402c0-0.25-0.184-0.418-0.586-0.418
	c-0.167,0-0.284,0.018-0.351,0.035V24.589L216.775,24.589z M216.76,26.126h-0.636v-2.739c0.25-0.034,0.601-0.085,1.053-0.085
	c0.519,0,0.751,0.085,0.937,0.217c0.166,0.117,0.283,0.318,0.283,0.586c0,0.334-0.251,0.55-0.567,0.65v0.033
	c0.267,0.084,0.399,0.301,0.483,0.67c0.084,0.418,0.15,0.566,0.2,0.667h-0.668c-0.083-0.101-0.133-0.334-0.218-0.667
	c-0.048-0.285-0.216-0.417-0.566-0.417h-0.301V26.126L216.76,26.126z M215.071,24.707c0,1.22,0.92,2.188,2.139,2.188
	c1.187,0.017,2.089-0.968,2.089-2.172c0-1.219-0.902-2.205-2.122-2.205C215.991,22.518,215.071,23.504,215.071,24.707
	L215.071,24.707z M220,24.707c0,1.537-1.235,2.755-2.806,2.755s-2.823-1.218-2.823-2.755s1.253-2.74,2.839-2.74
	C218.765,21.967,220,23.169,220,24.707L220,24.707z"/>
</svg>
