<?xml version="1.0" encoding="iso-8859-1"?>
<!-- Generator: Adobe Illustrator 17.1.0, SVG Export Plug-In . SVG Version: 6.00 Build 0)  -->
<!DOCTYPE svg PUBLIC "-//W3C//DTD SVG 1.1//EN" "http://www.w3.org/Graphics/SVG/1.1/DTD/svg11.dtd">
<svg version="1.1" id="Layer_1" xmlns="http://www.w3.org/2000/svg" xmlns:xlink="http://www.w3.org/1999/xlink" x="0px" y="0px"
	 viewBox="0 0 102.107 40" style="enable-background:new 0 0 102.107 40;" xml:space="preserve">
<g>
	<polygon style="fill:#FFFFFF;" points="61.186,5.071 55.59,9.141 52.039,6.558 53.059,5.815 55.59,7.655 59.143,5.071 55.59,2.486 
		46.439,9.141 40.843,5.071 46.439,1 49.994,3.586 48.973,4.328 46.439,2.486 42.886,5.071 46.439,7.655 55.59,1 61.186,5.071 	"/>
	<g>
		<path style="fill:#FFFFFF;" d="M18.047,24.213c0.326,0.116,0.602,0.281,0.827,0.495c0.225,0.214,0.399,0.474,0.522,0.778
			c0.123,0.305,0.185,0.642,0.185,1.012c0,0.784-0.243,1.382-0.729,1.796c-0.486,0.414-1.201,0.62-2.144,0.62h-4.69v3.004h-1.306
			v-7.879h6.246C17.357,24.039,17.72,24.097,18.047,24.213z M17.862,27.418c0.254-0.207,0.381-0.506,0.381-0.898
			c0-0.863-0.533-1.295-1.6-1.295h-4.625v2.503h4.712C17.23,27.728,17.608,27.625,17.862,27.418z"/>
		<path style="fill:#FFFFFF;" d="M27.34,31.918l-0.914-1.763h-5.3l-0.914,1.763h-1.426l4.168-7.879h1.643l4.168,7.879H27.34z
			 M23.781,25.16l-2.013,3.809h4.016L23.781,25.16z"/>
	</g>
	<g>
		<path style="fill:#FFFFFF;" d="M37.199,31.918l-2.133-3.004h-3.983v3.004h-1.306v-7.879h6.214c0.834,0,1.485,0.221,1.953,0.664
			c0.468,0.443,0.702,1.048,0.702,1.817c0,0.348-0.051,0.657-0.152,0.925c-0.102,0.268-0.245,0.499-0.43,0.691
			c-0.185,0.192-0.403,0.346-0.653,0.462c-0.25,0.116-0.521,0.2-0.811,0.25l2.111,3.069H37.199z M36.922,27.418
			c0.258-0.207,0.386-0.506,0.386-0.898c0-0.863-0.544-1.295-1.632-1.295h-4.592v2.503h4.712
			C36.289,27.728,36.664,27.625,36.922,27.418z"/>
		<path style="fill:#FFFFFF;" d="M47.69,31.918l-3.787-4.146l-2.372,1.752v2.394h-1.306v-7.879h1.306v4.081l5.517-4.081h1.883
			l-4.026,2.982l4.462,4.897H47.69z"/>
	</g>
	<g>
		<path style="fill:#FFFFFF;" d="M62.993,31.918v-6.442H62.96l-4.092,5.136l-4.059-5.136h-0.033v6.442h-1.306v-7.879h1.621
			l3.787,4.766l3.798-4.766h1.621v7.879H62.993z"/>
		<path style="fill:#FFFFFF;" d="M74.049,31.918l-0.914-1.763h-5.3l-0.914,1.763h-1.426l4.168-7.879h1.643l4.168,7.879H74.049z
			 M70.491,25.16l-2.013,3.809h4.016L70.491,25.16z"/>
	</g>
	<g>
		<path style="fill:#FFFFFF;" d="M76.678,31.918v-7.879h1.306v6.693h6.083v1.186H76.678z"/>
		<path style="fill:#FFFFFF;" d="M85.025,31.918v-7.879h1.306v6.693h6.083v1.186H85.025z"/>
	</g>
	<g>
		<path style="fill:#FFFFFF;" d="M12.271,18.706c-0.239,0.53-0.577,0.983-1.012,1.36c-0.435,0.377-0.963,0.669-1.583,0.876
			c-0.62,0.207-1.311,0.31-2.073,0.31c-0.689,0-1.331-0.094-1.926-0.283c-0.595-0.189-1.11-0.446-1.545-0.772
			c-1.052-0.798-1.578-1.839-1.578-3.123c0-1.269,0.533-2.307,1.6-3.112c0.45-0.348,0.976-0.613,1.578-0.794
			c0.602-0.181,1.262-0.272,1.98-0.272c0.885,0,1.674,0.151,2.367,0.453c0.693,0.302,1.326,0.782,1.899,1.441l-1.219,0.609
			c-0.399-0.428-0.854-0.755-1.366-0.979c-0.511-0.225-1.108-0.337-1.79-0.337c-0.493,0-0.956,0.066-1.388,0.196
			c-0.432,0.131-0.807,0.313-1.126,0.546c-0.784,0.582-1.175,1.333-1.175,2.25c0,0.437,0.087,0.839,0.261,1.207
			c0.174,0.368,0.423,0.684,0.745,0.95c0.323,0.266,0.711,0.471,1.164,0.617c0.453,0.146,0.959,0.218,1.518,0.218
			c0.856,0,1.573-0.175,2.149-0.525c0.577-0.35,0.992-0.857,1.246-1.521H7.33v-1.186h5.3v0.12
			C12.63,17.593,12.51,18.177,12.271,18.706z"/>
	</g>
	<g>
		<path style="fill:#FFFFFF;" d="M21.638,21.024l-2.133-3.003h-3.983v3.003h-1.306v-7.879h6.214c0.834,0,1.485,0.221,1.953,0.664
			c0.468,0.443,0.702,1.048,0.702,1.817c0,0.348-0.051,0.657-0.152,0.925c-0.102,0.269-0.245,0.499-0.43,0.691
			c-0.185,0.192-0.403,0.347-0.653,0.463c-0.25,0.116-0.521,0.2-0.811,0.25l2.111,3.069H21.638z M21.36,16.524
			c0.258-0.207,0.386-0.506,0.386-0.898c0-0.863-0.544-1.295-1.632-1.295h-4.592v2.503h4.712
			C20.727,16.835,21.103,16.731,21.36,16.524z"/>
		<path style="fill:#FFFFFF;" d="M24.772,21.024v-7.879h7.944v1.186h-6.638v2.013h4.614v1.186h-4.614v2.307h6.943v1.186H24.772z"/>
		<path style="fill:#FFFFFF;" d="M34.577,21.024v-7.879h7.944v1.186h-6.638v2.013h4.614v1.186h-4.614v2.307h6.943v1.186H34.577z"/>
		<path style="fill:#FFFFFF;" d="M51.716,21.024l-6.029-6.464v6.464h-1.306v-7.879h1.621l6.018,6.464v-6.464h1.306v7.879H51.716z"/>
	</g>
	<g>
		<path style="fill:#FFFFFF;" d="M64.035,21.024h-1.687l-1.97-6.584l-1.97,6.584h-1.665l-2.601-7.879h1.458l1.981,6.595l1.97-6.595
			h1.654l1.97,6.595l1.98-6.595h1.458L64.035,21.024z"/>
		<path style="fill:#FFFFFF;" d="M77.224,17.074c0,1.291-0.53,2.336-1.589,3.134c-0.435,0.326-0.949,0.582-1.54,0.767
			c-0.592,0.185-1.232,0.277-1.921,0.277c-0.689,0-1.333-0.094-1.932-0.283s-1.115-0.446-1.551-0.772
			c-1.059-0.798-1.589-1.839-1.589-3.123c0-1.262,0.537-2.3,1.611-3.112c0.442-0.334,0.959-0.595,1.551-0.783
			c0.591-0.189,1.228-0.283,1.91-0.283c0.675,0,1.309,0.094,1.904,0.283c0.595,0.189,1.11,0.45,1.545,0.783
			C76.691,14.774,77.224,15.812,77.224,17.074z M75.864,17.074c0-0.917-0.392-1.667-1.175-2.25
			c-0.319-0.233-0.693-0.415-1.121-0.546c-0.428-0.131-0.892-0.196-1.393-0.196c-0.551,0-1.054,0.075-1.507,0.224
			c-0.454,0.149-0.843,0.357-1.17,0.623c-0.326,0.266-0.581,0.583-0.762,0.95c-0.181,0.368-0.272,0.766-0.272,1.196
			c0,0.444,0.087,0.85,0.261,1.218c0.174,0.368,0.422,0.683,0.745,0.945s0.713,0.466,1.17,0.612
			c0.457,0.146,0.969,0.218,1.534,0.218s1.075-0.073,1.529-0.218c0.453-0.146,0.84-0.349,1.159-0.612
			c0.319-0.262,0.566-0.577,0.74-0.945C75.777,17.924,75.864,17.518,75.864,17.074z"/>
		<path style="fill:#FFFFFF;" d="M88.52,17.074c0,1.291-0.53,2.336-1.589,3.134c-0.435,0.326-0.949,0.582-1.54,0.767
			c-0.592,0.185-1.232,0.277-1.921,0.277c-0.689,0-1.333-0.094-1.932-0.283s-1.115-0.446-1.551-0.772
			c-1.059-0.798-1.589-1.839-1.589-3.123c0-1.262,0.537-2.3,1.611-3.112c0.442-0.334,0.959-0.595,1.551-0.783
			c0.591-0.189,1.228-0.283,1.91-0.283c0.675,0,1.309,0.094,1.904,0.283c0.595,0.189,1.11,0.45,1.545,0.783
			C87.986,14.774,88.52,15.812,88.52,17.074z M87.159,17.074c0-0.917-0.392-1.667-1.175-2.25c-0.319-0.233-0.693-0.415-1.121-0.546
			c-0.428-0.131-0.892-0.196-1.393-0.196c-0.551,0-1.054,0.075-1.507,0.224c-0.454,0.149-0.843,0.357-1.17,0.623
			c-0.326,0.266-0.581,0.583-0.762,0.95c-0.181,0.368-0.272,0.766-0.272,1.196c0,0.444,0.087,0.85,0.261,1.218
			c0.174,0.368,0.422,0.683,0.745,0.945s0.713,0.466,1.17,0.612c0.457,0.146,0.969,0.218,1.534,0.218s1.075-0.073,1.529-0.218
			c0.453-0.146,0.84-0.349,1.159-0.612s0.566-0.577,0.74-0.945C87.072,17.924,87.159,17.518,87.159,17.074z"/>
		<path style="fill:#FFFFFF;" d="M96.953,13.434c0.551,0.192,1.019,0.463,1.404,0.811c0.384,0.348,0.68,0.771,0.887,1.268
			c0.207,0.497,0.31,1.05,0.31,1.66c0,0.559-0.107,1.074-0.321,1.545c-0.214,0.472-0.532,0.892-0.952,1.263
			c-0.385,0.341-0.827,0.6-1.327,0.778c-0.501,0.178-1.038,0.267-1.611,0.267h-5.234v-7.879h4.984
			C95.781,13.146,96.402,13.242,96.953,13.434z M96.534,19.637c0.33-0.134,0.613-0.321,0.849-0.56s0.421-0.524,0.555-0.854
			c0.134-0.33,0.201-0.691,0.201-1.083c0-0.421-0.071-0.803-0.212-1.148c-0.141-0.345-0.341-0.64-0.599-0.887
			c-0.258-0.247-0.566-0.437-0.925-0.571c-0.359-0.134-0.76-0.201-1.202-0.201h-3.787v5.506h4.037
			C95.843,19.838,96.204,19.771,96.534,19.637z"/>
	</g>
	<g>
		<path style="fill:#FFFFFF;" d="M30.37,38.913l-0.347-0.669h-2.01l-0.347,0.669h-0.541l1.581-2.988h0.623l1.581,2.988H30.37z
			 M29.021,36.351l-0.763,1.444h1.523L29.021,36.351z"/>
		<path style="fill:#FFFFFF;" d="M35.823,36.371c-0.221-0.055-0.451-0.083-0.687-0.083c-0.311,0-0.546,0.037-0.706,0.109
			c-0.159,0.073-0.239,0.171-0.239,0.295c0,0.132,0.087,0.228,0.26,0.289c0.082,0.03,0.174,0.052,0.274,0.064
			c0.1,0.012,0.21,0.022,0.33,0.029c0.12,0.007,0.248,0.014,0.386,0.023c0.137,0.008,0.282,0.022,0.433,0.041
			c0.374,0.047,0.651,0.138,0.829,0.273c0.179,0.135,0.268,0.327,0.268,0.578c0,0.317-0.138,0.561-0.415,0.735
			c-0.277,0.173-0.682,0.26-1.215,0.26c-0.382,0-0.72-0.041-1.013-0.122c-0.293-0.081-0.548-0.208-0.766-0.382l0.272-0.359
			c0.242,0.149,0.485,0.257,0.73,0.326c0.245,0.069,0.505,0.103,0.78,0.103c0.358,0,0.629-0.047,0.813-0.142
			c0.184-0.095,0.277-0.224,0.277-0.386c0-0.107-0.031-0.19-0.093-0.248c-0.062-0.058-0.152-0.102-0.27-0.132
			c-0.118-0.03-0.263-0.052-0.435-0.064c-0.172-0.012-0.368-0.025-0.588-0.039c-0.231-0.017-0.433-0.039-0.604-0.068
			c-0.172-0.029-0.316-0.072-0.431-0.13s-0.202-0.133-0.26-0.227c-0.058-0.094-0.087-0.212-0.087-0.355
			c0-0.281,0.129-0.502,0.388-0.664c0.259-0.162,0.631-0.243,1.118-0.243c0.644,0,1.183,0.147,1.618,0.441l-0.301,0.334
			C36.267,36.512,36.045,36.426,35.823,36.371z"/>
		<path style="fill:#FFFFFF;" d="M38.33,38.913v-2.988h0.495v2.988H38.33z"/>
		<path style="fill:#FFFFFF;" d="M44.017,38.913v-2.443h-0.012l-1.552,1.948l-1.539-1.948h-0.012v2.443h-0.495v-2.988h0.615
			l1.436,1.807l1.44-1.807h0.615v2.988H44.017z"/>
		<path style="fill:#FFFFFF;" d="M49.773,37.416c0,0.49-0.201,0.886-0.603,1.188c-0.165,0.124-0.36,0.221-0.584,0.291
			C48.363,38.965,48.12,39,47.859,39c-0.261,0-0.505-0.036-0.732-0.107c-0.227-0.071-0.423-0.169-0.588-0.293
			c-0.402-0.303-0.602-0.698-0.602-1.184c0-0.479,0.203-0.872,0.611-1.18c0.168-0.126,0.364-0.225,0.588-0.297
			c0.224-0.072,0.466-0.107,0.724-0.107c0.256,0,0.497,0.036,0.722,0.107c0.225,0.072,0.421,0.171,0.586,0.297
			C49.571,36.543,49.773,36.937,49.773,37.416z M49.257,37.416c0-0.348-0.148-0.632-0.446-0.853
			c-0.121-0.088-0.263-0.157-0.425-0.207c-0.162-0.05-0.338-0.074-0.528-0.074c-0.209,0-0.4,0.028-0.571,0.085
			c-0.172,0.057-0.32,0.135-0.444,0.236c-0.124,0.101-0.22,0.221-0.289,0.36c-0.069,0.139-0.103,0.291-0.103,0.454
			c0,0.168,0.033,0.322,0.099,0.462c0.066,0.14,0.16,0.259,0.283,0.358c0.122,0.099,0.27,0.177,0.444,0.232
			c0.173,0.055,0.367,0.083,0.582,0.083s0.408-0.028,0.58-0.083c0.172-0.055,0.318-0.133,0.439-0.232
			c0.121-0.099,0.215-0.219,0.281-0.358C49.225,37.738,49.257,37.584,49.257,37.416z"/>
		<path style="fill:#FFFFFF;" d="M53.978,38.913l-2.286-2.451v2.451h-0.495v-2.988h0.615l2.282,2.451v-2.451h0.495v2.988H53.978z"/>
		<path style="fill:#FFFFFF;" d="M61.6,38.913v-2.443h-0.012l-1.552,1.948l-1.539-1.948h-0.012v2.443h-0.495v-2.988h0.615
			l1.436,1.807l1.44-1.807h0.615v2.988H61.6z"/>
		<path style="fill:#FFFFFF;" d="M66.482,38.913l-0.346-0.669h-2.01l-0.347,0.669h-0.54l1.58-2.988h0.623l1.581,2.988H66.482z
			 M65.133,36.351l-0.763,1.444h1.523L65.133,36.351z"/>
		<path style="fill:#FFFFFF;" d="M68.166,38.913v-2.988h0.495v2.538h2.307v0.45H68.166z"/>
	</g>
	<g>
		<path style="fill:#FFFFFF;" d="M72.074,38.913v-2.988h0.495v2.538h2.307v0.45H72.074z"/>
	</g>
</g>
</svg>
