<?xml version="1.0" encoding="UTF-8" standalone="no"?>
<svg width="490px" height="162px" viewBox="0 0 490 162" version="1.1" xmlns="http://www.w3.org/2000/svg" xmlns:xlink="http://www.w3.org/1999/xlink">
    <!-- Generator: Sketch 3.6 (26304) - http://www.bohemiancoding.com/sketch -->
    <title>Handy Dandy Logo</title>
    <desc>Created with Sketch.</desc>
    <defs></defs>
    <g id="Page-1" stroke="none" stroke-width="1" fill="none" fill-rule="evenodd">
        <g id="Page-References-/-REV-Desktop-HD---Home" transform="translate(-64.000000, -164.000000)">
            <g id="Handy-Dandy-Logo" transform="translate(64.000000, 164.000000)">
                <path d="M236.408328,132.897668 L224.957373,64.3889887 L357.292954,31.8392151 L488.844739,64.3818566 L480.168079,132.210951 L357.292954,160.953215 L236.408328,132.897668 Z" id="Fill-1" fill="#FFFFFF"></path>
                <path d="M356.807427,30.9102113 L225.631784,63.1747019 L223.798859,63.6250415 L224.110954,65.4895698 L235.293527,132.39557 L235.518195,133.7364 L236.839772,134.044098 L356.832842,161.892815 L357.294378,161.999796 L357.75388,161.892815 L479.711017,133.363494 L481.086473,133.042551 L481.265394,131.638551 L489.737718,65.4121358 L489.968485,63.6097585 L488.207739,63.1747019 L357.779295,30.9102113 L357.293361,30.7899849 L356.807427,30.9102113 Z M237.299274,132.058325 L226.116701,65.1533434 L357.292344,32.8888528 L487.720788,65.1533434 L479.249481,131.379758 L357.292344,159.90806 L237.299274,132.058325 Z" id="Fill-2" fill="#00735D"></path>
                <path d="M242.535259,127.11926 L233.546504,69.7631094 L357.29082,37.3040151 L480.605114,69.8344302 L473.813226,126.452921 L357.288786,155.521223 L242.535259,127.11926 Z" id="Fill-3" fill="#00735D"></path>
                <path d="M12.6088589,102.33163 L1.15790456,33.8229509 L133.493485,1.27317736 L265.04527,33.8158189 L256.36861,101.644913 L133.493485,130.387177 L12.6088589,102.33163 Z" id="Fill-4" fill="#FFFFFF"></path>
                <path d="M133.493994,0.224354717 L133.00806,0.343562264 L1.83241701,32.6080528 L0.000508298755,33.0583925 L0.311587137,34.9239396 L11.4941598,101.82994 L11.7188278,103.17077 L13.0404046,103.478468 L133.033475,131.327185 L133.493994,131.434166 L133.954512,131.326166 L255.911649,102.797864 L257.287106,102.475902 L257.466027,101.072921 L265.937334,34.8454868 L266.168102,33.0441283 L264.408371,32.6080528 L133.979927,0.344581132 L133.493994,0.224354717 Z M13.4999066,101.492694 L2.31631743,34.5877132 L133.491961,2.32322264 L263.921421,34.5877132 L255.450114,100.813109 L133.491961,129.341411 L13.4999066,101.492694 Z" id="Fill-5" fill="#00735D"></path>
                <path d="M18.7358921,96.5532226 L9.74713693,39.1970717 L133.491452,8.77571321 L256.805747,39.2683925 L250.013859,95.886883 L133.489419,122.917449 L18.7358921,96.5532226 Z" id="Fill-6" fill="#00735D"></path>
                <path d="M70.990834,91.9113623 L50.6477012,91.9113623 L50.6477012,39.5283057 L60.3704398,39.5283057 L60.3704398,83.2132868 L70.990834,83.2132868 L70.990834,91.9113623 Z" id="Fill-7" fill="#FFFFFF"></path>
                <path d="M91.9721867,74.7343698 L89.5323527,54.9438792 L87.1565643,74.7343698 L91.9721867,74.7343698 Z M103.011419,91.9114642 L94.4943651,91.9114642 L92.8129129,81.9184075 L86.3158382,81.9184075 L84.6323527,91.9114642 L76.1152988,91.9114642 L83.3931203,39.5284075 L95.7346141,39.5284075 L103.011419,91.9114642 Z" id="Fill-8" fill="#FFFFFF"></path>
                <g id="Group-109" transform="translate(106.742739, 38.716981)">
                    <path d="M22.6145166,43.3160491 C22.6145166,46.7588038 21.8571515,49.302917 20.3414046,50.9494075 C18.5735415,52.8465396 15.5847448,53.7930679 11.3760311,53.7930679 C7.37673651,53.7930679 4.45198548,52.6712943 2.60076141,50.4257094 C1.21107261,48.7792189 0.516736515,46.7333321 0.516736515,44.2890679 L0.516736515,37.4106906 L9.29302282,36.3918226 L9.29302282,44.4296717 C9.29302282,44.9818981 9.47702697,45.4210302 9.84808506,45.7460491 C10.2181266,46.0720868 10.6654295,46.2351057 11.1879606,46.2351057 C11.7969025,46.2351057 12.255388,46.0853321 12.5603672,45.784766 C12.8653465,45.4842 13.0178361,45.0328415 13.0178361,44.4306906 L13.0178361,38.1931811 C13.0178361,36.7402755 12.7423382,35.5879358 12.1933755,34.7361623 C10.7111763,32.9337849 9.12528423,30.9541245 7.43264938,28.7982 C4.64107261,25.3075585 3.07551245,23.3115962 2.73698548,22.8123509 C1.2568195,20.566766 0.516736515,18.4719736 0.516736515,16.5269547 L0.516736515,10.6144642 C0.516736515,7.27359623 1.31578216,4.80386038 2.91590664,3.20627547 C4.76713071,1.36110566 7.71424689,0.438011321 11.755222,0.438011321 C15.248251,0.438011321 17.8578568,1.36110566 19.5840394,3.20627547 C21.0570892,4.80386038 21.7941224,6.97404906 21.7941224,9.71684151 L21.7941224,14.6960491 L13.0178361,15.714917 L13.0178361,9.05355849 C13.0178361,8.55227547 12.8744959,8.16306792 12.5898485,7.88695472 C12.3041846,7.61084151 11.9422759,7.4712566 11.5031058,7.4712566 C10.9765083,7.4712566 10.5820685,7.59759623 10.3187697,7.84823774 C10.055471,8.09989811 9.92432988,8.50235094 9.92432988,9.05355849 L9.92432988,13.9492189 C9.92432988,15.6578604 10.5586867,17.3145396 11.828417,18.9212943 C13.6033963,21.0670302 15.2746826,23.0874453 16.8402427,24.9825396 C18.870388,27.4777472 20.1817988,29.2230679 20.7744751,30.2205396 C22.0004917,32.2664264 22.6145166,34.4111434 22.6145166,36.6557094 L22.6145166,43.3160491 Z" id="Fill-9" fill="#FFFFFF"></path>
                    <path d="M51.3591162,43.3160491 C51.3591162,46.7588038 50.601751,49.302917 49.0860041,50.9494075 C47.3181411,52.8465396 44.3293444,53.7930679 40.1206307,53.7930679 C36.1213361,53.7930679 33.1965851,52.6712943 31.345361,50.4257094 C29.9556722,48.7792189 29.2613361,46.7333321 29.2613361,44.2890679 L29.2613361,37.4106906 L38.0376224,36.3918226 L38.0376224,44.4296717 C38.0376224,44.9818981 38.2216266,45.4210302 38.5926846,45.7460491 C38.9627261,46.0720868 39.410029,46.2351057 39.9325602,46.2351057 C40.5415021,46.2351057 40.9999876,46.0853321 41.3049668,45.784766 C41.6099461,45.4842 41.7624357,45.0328415 41.7624357,44.4306906 L41.7624357,38.1931811 C41.7624357,36.7402755 41.4869378,35.5879358 40.9379751,34.7361623 C39.4557759,32.9337849 37.8698838,30.9541245 36.177249,28.7982 C33.3856722,25.3075585 31.820112,23.3115962 31.4815851,22.8123509 C30.0014191,20.566766 29.2613361,18.4719736 29.2613361,16.5269547 L29.2613361,10.6144642 C29.2613361,7.27359623 30.0603817,4.80386038 31.6605062,3.20627547 C33.5117303,1.36110566 36.4588465,0.438011321 40.4998216,0.438011321 C43.9928506,0.438011321 46.6024564,1.36110566 48.328639,3.20627547 C49.8016888,4.80386038 50.538722,6.97404906 50.538722,9.71684151 L50.538722,14.6960491 L41.7624357,15.714917 L41.7624357,9.05355849 C41.7624357,8.55227547 41.6190954,8.16306792 41.3344481,7.88695472 C41.0487842,7.61084151 40.6868755,7.4712566 40.2477054,7.4712566 C39.7211079,7.4712566 39.326668,7.59759623 39.0633693,7.84823774 C38.8000705,8.09989811 38.6689295,8.50235094 38.6689295,9.05355849 L38.6689295,13.9492189 C38.6689295,15.6578604 39.3032863,17.3145396 40.5730166,18.9212943 C42.3479959,21.0670302 44.0192822,23.0874453 45.5848423,24.9825396 C47.6149876,27.4777472 48.9263983,29.2230679 49.5190747,30.2205396 C50.7450913,32.2664264 51.3591162,34.4111434 51.3591162,36.6557094 L51.3591162,43.3160491 Z" id="Fill-11" fill="#FFFFFF"></path>
                    <path d="M80.3877531,44.2891698 C80.3877531,47.3325283 79.3243921,49.6769434 77.1997033,51.323434 C75.0729813,52.9699245 72.368832,53.7931698 69.0862386,53.7931698 C65.8026286,53.7931698 63.1289772,53.0198491 61.068334,51.4732075 C58.8358859,49.7778113 57.721695,47.4079245 57.721695,44.3635472 L57.721695,0.812037736 L67.3814046,0.812037736 L67.3814046,44.9606038 C67.3814046,45.4608679 67.5237282,45.8480377 67.8073589,46.1231321 C68.0920062,46.3972075 68.5189772,46.5337358 69.0872552,46.5337358 C69.6555332,46.5337358 70.0723382,46.3972075 70.3336037,46.1231321 C70.5969025,45.8480377 70.7280436,45.4608679 70.7280436,44.9606038 L70.7280436,0.812037736 L80.3877531,0.812037736 L80.3877531,44.2891698 Z" id="Fill-13" fill="#FFFFFF"></path>
                    <path d="M108.848214,43.3160491 C108.848214,46.7588038 108.090849,49.302917 106.575102,50.9494075 C104.807239,52.8465396 101.818442,53.7930679 97.6097282,53.7930679 C93.6104336,53.7930679 90.6856826,52.6712943 88.8344585,50.4257094 C87.4447697,48.7792189 86.7504336,46.7333321 86.7504336,44.2890679 L86.7504336,37.4106906 L95.5267199,36.3918226 L95.5267199,44.4296717 C95.5267199,44.9818981 95.7107241,45.4210302 96.0817822,45.7460491 C96.4518237,46.0720868 96.8991266,46.2351057 97.4216577,46.2351057 C98.0305996,46.2351057 98.4890851,46.0853321 98.7940643,45.784766 C99.0990436,45.4842 99.2515332,45.0328415 99.2515332,44.4306906 L99.2515332,38.1931811 C99.2515332,36.7402755 98.9760353,35.5879358 98.4270726,34.7361623 C96.9448734,32.9337849 95.3589813,30.9541245 93.6663465,28.7982 C90.8747697,25.3075585 89.3092095,23.3115962 88.9706826,22.8123509 C87.4905166,20.566766 86.7504336,18.4719736 86.7504336,16.5269547 L86.7504336,10.6144642 C86.7504336,7.27359623 87.5494793,4.80386038 89.1496037,3.20627547 C91.0008278,1.36110566 93.947944,0.438011321 97.9889191,0.438011321 C101.481948,0.438011321 104.091554,1.36110566 105.817737,3.20627547 C107.290786,4.80386038 108.02782,6.97404906 108.02782,9.71684151 L108.02782,14.6960491 L99.2515332,15.714917 L99.2515332,9.05355849 C99.2515332,8.55227547 99.1081929,8.16306792 98.8235456,7.88695472 C98.5378817,7.61084151 98.175973,7.4712566 97.7368029,7.4712566 C97.2102054,7.4712566 96.8157656,7.59759623 96.5524668,7.84823774 C96.289168,8.09989811 96.158027,8.50235094 96.158027,9.05355849 L96.158027,13.9492189 C96.158027,15.6578604 96.7923838,17.3145396 98.0621141,18.9212943 C99.8370934,21.0670302 101.50838,23.0874453 103.07394,24.9825396 C105.104085,27.4777472 106.415496,29.2230679 107.008172,30.2205396 C108.234189,32.2664264 108.848214,34.4111434 108.848214,36.6557094 L108.848214,43.3160491 Z" id="Fill-15" fill="#FFFFFF"></path>
                    <path d="M178.441836,55.1632415 C180.606172,54.9747509 182.193081,53.0134302 182.193081,50.8361094 L182.193081,43.6530906 C182.193081,43.1782981 182.577355,42.793166 183.051089,42.793166 L192.149637,42.793166 C192.623371,42.793166 193.007645,43.1782981 193.007645,43.6530906 L193.007645,50.8361094 C193.007645,53.0134302 194.593537,54.9747509 196.75889,55.1632415 C199.199741,55.3761849 201.248185,53.4525623 201.248185,51.0500717 L201.248185,26.4892415 C201.248185,24.3119208 199.661276,22.3506 197.49694,22.1621094 C195.055073,21.9481472 193.007645,23.8717698 193.007645,26.2742604 L193.007645,33.705883 C193.007645,34.1633547 192.637604,34.5342226 192.181151,34.5342226 L183.019575,34.5342226 C182.563122,34.5342226 182.193081,34.1633547 182.193081,33.705883 L182.193081,26.4892415 C182.193081,24.3119208 180.606172,22.3506 178.441836,22.1621094 C175.999969,21.9481472 173.952541,23.8717698 173.952541,26.2742604 L173.952541,51.0500717 C173.952541,53.4525623 175.999969,55.3761849 178.441836,55.1632415" id="Fill-17" fill="#FCD70C"></path>
                    <path d="M176.970515,54.5830981 C176.899353,54.5830981 176.826158,54.5749472 176.752963,54.5596642 C175.942734,54.3783057 174.410722,53.3991736 174.410722,50.9864943 L174.410722,27.7593623 C174.410722,27.1959283 174.866158,26.7404943 175.42732,26.7404943 C175.989498,26.7404943 176.443917,27.1959283 176.443917,27.7593623 L176.443917,50.9864943 C176.443917,52.2794377 177.094539,52.5382302 177.224664,52.5769472 C177.749228,52.7338528 178.075556,53.2840415 177.938315,53.8148717 C177.819373,54.2723434 177.420867,54.5830981 176.970515,54.5830981" id="Fill-19" fill="#00735D"></path>
                    <path d="M176.683122,25.0063811 C176.683122,25.5524943 176.240902,25.9957019 175.696006,25.9957019 C175.15111,25.9957019 174.70889,25.5524943 174.70889,25.0063811 C174.70889,24.4602679 175.15111,24.0170604 175.696006,24.0170604 C176.240902,24.0170604 176.683122,24.4602679 176.683122,25.0063811" id="Fill-21" fill="#00735D"></path>
                    <path d="M196.033243,55.1422528 C194.299944,55.1422528 192.957019,53.1727811 192.957019,51.4784038 L192.957019,43.8358755 C192.957019,42.8139509 191.896707,42.7039132 191.441272,42.7039132 L182.321376,42.7039132 C181.760214,42.7039132 181.304778,42.2484792 181.304778,41.6850453 C181.304778,41.1216113 181.760214,40.6661774 182.321376,40.6661774 L191.441272,40.6661774 C193.53038,40.6661774 194.990214,41.9693094 194.990214,43.8358755 L194.990214,51.4784038 C194.990214,52.217083 195.63067,53.104517 196.033243,53.104517 C196.594405,53.104517 197.04984,53.5599509 197.04984,54.1233849 C197.04984,54.6868189 196.594405,55.1422528 196.033243,55.1422528" id="Fill-23" fill="#00735D"></path>
                    <path d="M194.037763,35.2275623 C193.476602,35.2275623 193.021166,34.7721283 193.021166,34.2086943 L193.021166,27.7592604 C193.021166,27.1958264 193.476602,26.7403925 194.037763,26.7403925 C194.598925,26.7403925 195.054361,27.1958264 195.054361,27.7592604 L195.054361,34.2086943 C195.054361,34.7721283 194.598925,35.2275623 194.037763,35.2275623" id="Fill-25" fill="#00735D"></path>
                    <path d="M195.722164,25.0063811 C195.722164,25.5524943 195.279944,25.9957019 194.735048,25.9957019 C194.190151,25.9957019 193.747932,25.5524943 193.747932,25.0063811 C193.747932,24.4602679 194.190151,24.0170604 194.735048,24.0170604 C195.279944,24.0170604 195.722164,24.4602679 195.722164,25.0063811" id="Fill-27" fill="#00735D"></path>
                    <path d="M218.114656,41.6106679 L220.331855,37.0247434 C220.623618,36.4215736 221.481627,36.4225925 221.771357,37.0278 L223.964158,41.6137245 C224.218307,42.1455736 223.830983,42.7609698 223.24339,42.7609698 L218.83339,42.7609698 C218.243763,42.7609698 217.857456,42.142517 218.114656,41.6106679 L218.114656,41.6106679 Z M224.789635,24.2287811 C224.105465,22.7982906 222.662913,21.8874226 221.080071,21.8874226 C219.498245,21.8874226 218.055693,22.7931962 217.365423,24.2206302 L205.317726,49.1401019 C204.491232,50.8507811 204.82671,52.9700264 206.28451,54.1875736 C207.099822,54.8671585 208.046274,55.1799509 208.969344,55.1799509 C210.499324,55.1799509 211.969324,54.3220642 212.680942,52.8508189 L214.305465,49.4895736 C214.613494,49.2970075 214.850361,49.147234 215.15839,48.9546679 L226.87671,48.9546679 C227.184739,49.1492717 227.422622,49.2990453 227.730651,49.4936491 L229.135589,52.4320642 C229.993598,54.2252717 231.980029,55.3001774 233.901398,54.8070453 C236.515071,54.1356113 237.739054,51.314366 236.636046,49.0076491 L224.789635,24.2287811 Z" id="Fill-29" fill="#FCD70C"></path>
                    <path d="M219.532911,25.4124 C219.532911,25.9585132 219.090691,26.4017208 218.545795,26.4017208 C218.000898,26.4017208 217.558678,25.9585132 217.558678,25.4124 C217.558678,24.8662868 218.000898,24.4230792 218.545795,24.4230792 C219.090691,24.4230792 219.532911,24.8662868 219.532911,25.4124" id="Fill-31" fill="#00735D"></path>
                    <path d="M207.684873,54.5830981 C207.550683,54.5830981 207.414459,54.5566075 207.284334,54.5005698 C207.137944,54.4374 205.844832,53.8454377 205.309085,52.4067962 C204.927861,51.3838528 205.03562,50.2427208 205.62728,49.0149849 C207.044417,46.0837019 216.170413,27.3120792 216.170413,27.3120792 L217.998255,28.2056264 C217.998255,28.2056264 208.874293,46.9731736 207.457156,49.9034377 C207.116595,50.6105321 207.034251,51.212683 207.214189,51.6946075 C207.44699,52.3191736 208.08033,52.624834 208.086429,52.6278906 C208.601844,52.8500038 208.840745,53.4490981 208.619127,53.966683 C208.454438,54.3518151 208.079313,54.5830981 207.684873,54.5830981" id="Fill-33" fill="#00735D"></path>
                    <path d="M225.303627,43.0740679 C224.927485,43.0740679 224.566593,42.8652 224.390722,42.5035019 L221.193523,35.9776528 C220.945473,35.4733132 221.153876,34.8619925 221.658108,34.6144075 C222.16234,34.3658038 222.770266,34.5736528 223.018315,35.0800302 L226.214498,41.6068981 C226.462548,42.1112377 226.255162,42.7215396 225.750929,42.9691245 C225.606573,43.0404453 225.454083,43.0740679 225.303627,43.0740679" id="Fill-35" fill="#00735D"></path>
                    <path d="M231.009077,53.7134943 C230.643102,53.7134943 230.289326,53.515834 230.107355,53.1673811 L228.111774,49.3527396 C227.882023,48.9125887 227.429637,48.6395321 226.933537,48.6395321 L215.606608,48.6395321 C215.044429,48.6395321 214.59001,48.1830792 214.59001,47.6206642 C214.59001,47.0572302 215.044429,46.6017962 215.606608,46.6017962 L226.933537,46.6017962 C228.188019,46.6017962 229.329658,47.2925887 229.912168,48.4062113 L231.908766,52.2218717 C232.169015,52.7190792 231.977894,53.3354943 231.479761,53.5973434 C231.329305,53.6757962 231.167666,53.7134943 231.009077,53.7134943" id="Fill-37" fill="#00735D"></path>
                    <path d="M263.231355,22.2302717 C261.285587,22.6184604 259.957911,24.4483472 259.957911,26.4361585 L259.957911,37.7241962 C259.957911,38.2397434 259.309322,38.4679698 258.991127,38.0624604 C255.323243,33.4021585 251.095214,28.0052151 247.830919,23.8309132 C247.022724,22.7967623 245.797724,22.1151396 244.48733,22.1395925 C242.120691,22.1834038 240.388409,24.0784981 240.388409,26.2751774 L240.388409,50.8889887 C240.388409,52.8768 241.716085,54.7066868 243.660836,55.0948755 C246.307039,55.6226491 248.627932,53.6083472 248.627932,51.0499698 L248.627932,40.2846113 C248.627932,39.6070642 249.481873,39.3095547 249.900712,39.8424226 C250.264654,40.3060075 250.630629,40.7726491 250.996604,41.2382717 C253.438471,44.3448 255.884405,47.4492906 257.729529,49.7743472 C258.660732,50.9470642 259.440463,51.9241585 259.993492,52.6057811 C260.863699,53.6806868 262.098865,55.2049132 264.025317,55.2049132 C264.531583,55.2049132 265.086645,55.0999698 265.694571,54.8534038 C267.244882,54.2237434 268.19845,52.6404226 268.19845,50.963366 L268.19845,26.2751774 C268.19845,23.7168 265.877558,21.7024981 263.231355,22.2302717" id="Fill-39" fill="#FCD70C"></path>
                    <path d="M243.350164,54.5830981 C243.276969,54.5830981 243.202757,54.5749472 243.128546,54.5596642 C242.318317,54.3783057 240.787322,53.3991736 240.787322,50.9864943 L240.787322,27.7593623 C240.787322,27.1959283 241.242757,26.7404943 241.803919,26.7404943 C242.366098,26.7404943 242.820517,27.1959283 242.820517,27.7593623 L242.820517,50.9864943 C242.820517,52.3640038 243.561616,52.5677774 243.569749,52.5687962 C244.117695,52.6920792 244.463338,53.2361547 244.341346,53.7853245 C244.236637,54.260117 243.815766,54.5830981 243.350164,54.5830981" id="Fill-41" fill="#00735D"></path>
                    <path d="M261.24594,41.6810717 C260.684778,41.6810717 260.229342,41.2256377 260.229342,40.6622038 L260.229342,27.7592604 C260.229342,27.1958264 260.684778,26.7403925 261.24594,26.7403925 C261.807102,26.7403925 262.262537,27.1958264 262.262537,27.7592604 L262.262537,40.6622038 C262.262537,41.2256377 261.807102,41.6810717 261.24594,41.6810717" id="Fill-43" fill="#00735D"></path>
                    <path d="M262.93034,25.0063811 C262.93034,25.5524943 262.48812,25.9957019 261.943224,25.9957019 C261.398328,25.9957019 260.956108,25.5524943 260.956108,25.0063811 C260.956108,24.4602679 261.398328,24.0170604 261.943224,24.0170604 C262.48812,24.0170604 262.93034,24.4602679 262.93034,25.0063811" id="Fill-45" fill="#00735D"></path>
                    <path d="M263.520373,54.5830981 C262.038174,54.5830981 261.194398,53.4022302 261.102905,53.2677396 L249.892884,39.1686453 C249.543174,38.7284943 249.615353,38.0876264 250.054523,37.7371358 C250.493693,37.3876642 251.133133,37.457966 251.483859,37.8991358 L262.73861,52.0593623 C262.779274,52.1143811 263.096452,52.5453623 263.520373,52.5453623 C264.081535,52.5453623 264.536971,53.0007962 264.536971,53.5642302 C264.536971,54.1276642 264.081535,54.5830981 263.520373,54.5830981" id="Fill-47" fill="#00735D"></path>
                    <path d="M280.81595,32.1927623 C280.81595,31.2248377 281.625162,30.4464226 282.589913,30.4983849 C285.021614,30.6308377 291.287921,32.1071774 291.287921,38.6635925 C291.287921,45.2200075 284.927071,46.6729132 282.596012,46.8124981 C281.629228,46.8695547 280.81595,46.0901208 280.81595,45.1191396 L280.81595,32.1927623 Z M276.702797,55.1794415 L277.181614,55.1794415 L277.711261,55.1794415 C282.083647,55.1794415 287.399436,55.1152528 292.036137,53.3760453 C298.508813,50.9470642 301.93068,45.8608755 301.93068,38.6635925 C301.93068,31.4581585 298.576925,26.3740075 292.23234,23.9572528 C287.460432,22.1395925 281.775618,22.1518189 277.207029,22.1457057 L276.702797,22.1457057 C274.423585,22.1457057 272.575411,23.9980075 272.575411,26.2823094 L272.575411,51.0428377 C272.575411,53.3271396 274.423585,55.1794415 276.702797,55.1794415 L276.702797,55.1794415 Z" id="Fill-49" fill="#FCD70C"></path>
                    <path d="M273.992039,52.6906528 C273.430878,52.6906528 272.975442,52.2352189 272.975442,51.6717849 L272.975442,27.7589547 C272.975442,27.1965396 273.430878,26.7400868 273.992039,26.7400868 C274.553201,26.7400868 275.008637,27.1965396 275.008637,27.7589547 L275.008637,51.6717849 C275.008637,52.2352189 274.553201,52.6906528 273.992039,52.6906528" id="Fill-51" fill="#00735D"></path>
                    <path d="M292.831929,39.5527585 C292.303299,39.5527585 291.857012,39.1431736 291.818382,38.6062302 C291.415809,32.9392868 287.91668,30.0650604 281.416556,30.0650604 C280.855394,30.0650604 280.399959,29.6096264 280.399959,29.0461925 C280.399959,28.4837774 280.855394,28.0273245 281.416556,28.0273245 C288.954627,28.0273245 293.368693,31.7329472 293.84751,38.4615509 C293.887158,39.0219283 293.46527,39.509966 292.905124,39.5497019 C292.880726,39.5517396 292.856328,39.5527585 292.831929,39.5527585" id="Fill-53" fill="#00735D"></path>
                    <path d="M281.416963,54.5830981 C280.855801,54.5830981 280.400365,54.1276642 280.400365,53.5642302 C280.400365,53.0018151 280.855801,52.5453623 281.416963,52.5453623 C281.463726,52.5453623 286.190905,52.5280415 289.758145,51.3094755 C290.287793,51.1240415 290.866237,51.4134 291.048207,51.9452491 C291.229162,52.478117 290.945531,53.056834 290.413851,53.2381925 C286.522315,54.5678151 281.623332,54.5830981 281.416963,54.5830981" id="Fill-55" fill="#00735D"></path>
                    <path d="M311.973749,41.1233434 L311.973749,50.8891925 C311.973749,52.8770038 313.301425,54.7068906 315.247193,55.0950792 C317.89238,55.6228528 320.214288,53.6075321 320.214288,51.0501736 L320.214288,40.9786642 C320.403376,40.4213434 320.577214,39.9088528 320.767317,39.3505132 L328.830969,28.8653434 C329.923811,27.4440226 330.08545,25.442966 329.056654,23.9747774 C327.350803,21.5386642 324.00823,21.608966 322.358293,23.753683 L316.438645,31.4512302 C316.197712,31.7650415 315.728044,31.7731925 315.475927,31.4695698 L309.014434,23.6986642 C307.868728,22.3201358 305.953459,21.7271547 304.300471,22.4138717 C301.556674,23.5539849 300.897919,26.8367774 302.629185,28.9183245 L311.356674,39.4167396 C311.569143,40.0025887 311.762297,40.5364755 311.973749,41.1233434" id="Fill-57" fill="#FCD70C"></path>
                    <path d="M324.419647,25.0063811 C324.419647,25.5524943 323.977427,25.9957019 323.432531,25.9957019 C322.887635,25.9957019 322.445415,25.5524943 322.445415,25.0063811 C322.445415,24.4602679 322.887635,24.0170604 323.432531,24.0170604 C323.977427,24.0170604 324.419647,24.4602679 324.419647,25.0063811" id="Fill-59" fill="#00735D"></path>
                    <path d="M315.299751,54.3841132 C313.545104,54.3841132 312.76639,52.6683396 312.583402,51.654566 C312.57222,51.5954717 312.567137,51.5333208 312.567137,51.4732075 L312.567137,40.5285283 C312.567137,40.1107925 312.420747,39.7022264 312.156432,39.3782264 L302.76917,28.4233585 C302.403195,27.9964528 302.451992,27.3535472 302.877946,26.9857358 C303.302884,26.6189434 303.94639,26.6688679 304.311349,27.0957736 L313.713859,38.0689811 C314.29027,38.7740377 314.600332,39.6400755 314.600332,40.5285283 L314.600332,51.3621509 C314.671494,51.6443774 314.918527,52.3463774 315.299751,52.3463774 C315.860913,52.3463774 316.316349,52.8018113 316.316349,53.3652453 C316.316349,53.9286792 315.860913,54.3841132 315.299751,54.3841132" id="Fill-61" fill="#00735D"></path>
                    <path d="M317.844295,32.9680189 C317.617593,32.9680189 317.389876,32.8926226 317.200788,32.7377547 C316.766701,32.3811509 316.702656,31.7392642 317.058465,31.3042075 L320.920519,26.5736038 C321.276328,26.1365094 321.915768,26.0743585 322.350871,26.4289245 C322.784959,26.7865472 322.849004,27.428434 322.494212,27.8624717 L318.631141,32.5940943 C318.430871,32.8406604 318.139108,32.9680189 317.844295,32.9680189" id="Fill-63" fill="#00735D"></path>
                    <path d="M182.192573,70.3528302 C182.192573,69.3849057 183.001784,68.6064906 183.966535,68.6594717 C186.398237,68.7909057 192.664544,70.2672453 192.664544,76.8236604 C192.664544,83.3800755 186.303693,84.8329811 183.972635,84.972566 C183.005851,85.0296226 182.192573,84.2501887 182.192573,83.2792075 L182.192573,70.3528302 Z M178.079419,93.3395094 L178.558237,93.3395094 L179.087884,93.3395094 C183.46027,93.3395094 188.776058,93.2753208 193.412759,91.5361132 C199.885436,89.1071321 203.307303,84.0209434 203.307303,76.8236604 C203.307303,69.6182264 199.953548,64.5340755 193.608963,62.1173208 C188.837054,60.2996604 183.152241,60.3118868 178.583651,60.3057736 L178.079419,60.3057736 C175.800207,60.3057736 173.952033,62.1580755 173.952033,64.4423774 L173.952033,89.2029057 C173.952033,91.4872075 175.800207,93.3395094 178.079419,93.3395094 L178.079419,93.3395094 Z" id="Fill-65" fill="#FCD70C"></path>
                    <path d="M175.368763,90.8504151 C174.807602,90.8504151 174.352166,90.3949811 174.352166,89.8315472 L174.352166,65.918717 C174.352166,65.3563019 174.807602,64.8998491 175.368763,64.8998491 C175.929925,64.8998491 176.385361,65.3563019 176.385361,65.918717 L176.385361,89.8315472 C176.385361,90.3949811 175.929925,90.8504151 175.368763,90.8504151" id="Fill-67" fill="#00735D"></path>
                    <path d="M194.208552,77.7126226 C193.679921,77.7126226 193.233635,77.3030377 193.195004,76.7660943 C192.792432,71.1001698 189.293303,68.2259434 182.793178,68.2259434 C182.232017,68.2259434 181.776581,67.7705094 181.776581,67.2070755 C181.776581,66.6446604 182.232017,66.1882075 182.793178,66.1882075 C190.331249,66.1882075 194.745315,69.8938302 195.224133,76.6214151 C195.26378,77.1817925 194.841892,77.6698302 194.281747,77.709566 C194.257349,77.7116038 194.23295,77.7126226 194.208552,77.7126226" id="Fill-69" fill="#00735D"></path>
                    <path d="M182.793687,92.7428604 C182.232525,92.7428604 181.777089,92.2874264 181.777089,91.7239925 C181.777089,91.1615774 182.232525,90.7051245 182.793687,90.7051245 C182.84045,90.7051245 187.567629,90.6878038 191.134869,89.4702566 C191.664517,89.2838038 192.243977,89.5741811 192.424932,90.1060302 C192.605886,90.6388981 192.322255,91.2176151 191.790575,91.3989736 C187.899039,92.7275774 183.000056,92.7428604 182.793687,92.7428604" id="Fill-71" fill="#00735D"></path>
                    <path d="M217.567421,79.899317 L219.78462,75.3133925 C220.076384,74.7102226 220.935409,74.7112415 221.224122,75.3164491 L223.416923,79.9023736 C223.671073,80.4342226 223.283749,81.0496189 222.696156,81.0496189 L218.286156,81.0496189 C217.696529,81.0496189 217.310222,80.431166 217.567421,79.899317 L217.567421,79.899317 Z M224.2424,62.5174302 C223.55823,61.0869396 222.115678,60.1760717 220.532836,60.1760717 L220.532836,60.1760717 C218.95101,60.1760717 217.508459,61.0818453 216.819205,62.5092792 L204.771508,87.4287509 C203.943998,89.1394302 204.279475,91.2586755 205.737276,92.4762226 C206.552587,93.1558075 207.499039,93.4686 208.42211,93.4686 C209.952089,93.4686 211.422089,92.6107132 212.133707,91.1394679 L213.75823,87.7782226 C214.066259,87.5856566 214.303127,87.435883 214.611156,87.243317 L226.329475,87.243317 C226.637504,87.4379208 226.875388,87.5876943 227.183417,87.7822981 L228.588355,90.7207132 C229.446363,92.5139208 231.432795,93.5888264 233.354164,93.0956943 C235.967836,92.4242604 237.19182,89.6030151 236.088811,87.2962981 L224.2424,62.5174302 Z" id="Fill-73" fill="#FCD70C"></path>
                    <path d="M218.985778,63.7010491 C218.985778,64.2471623 218.543558,64.6903698 217.998662,64.6903698 C217.453766,64.6903698 217.011546,64.2471623 217.011546,63.7010491 C217.011546,63.1549358 217.453766,62.7117283 217.998662,62.7117283 C218.543558,62.7117283 218.985778,63.1549358 218.985778,63.7010491" id="Fill-75" fill="#00735D"></path>
                    <path d="M207.134894,92.8722566 C207.002737,92.8722566 206.867529,92.845766 206.736388,92.7897283 C206.591015,92.7265585 205.296886,92.1345962 204.762156,90.6949358 C204.380932,89.6709736 204.487674,88.5308604 205.080351,87.3031245 C206.497488,84.3728604 215.623483,65.6002189 215.623483,65.6002189 L217.450309,66.493766 C217.450309,66.493766 208.326346,85.2623321 206.910226,88.1915774 C206.572716,88.8905208 206.489355,89.4875774 206.660143,89.9654264 C206.891927,90.6124075 207.543566,90.9190868 207.550683,90.9221434 C208.055932,91.1544453 208.287716,91.7545585 208.061015,92.2639925 C207.893276,92.6440302 207.523234,92.8722566 207.134894,92.8722566" id="Fill-77" fill="#00735D"></path>
                    <path d="M224.756595,81.3622075 C224.380454,81.3622075 224.019562,81.1533396 223.843691,80.7916415 L220.646492,74.2668113 C220.398442,73.7624717 220.606844,73.1511509 221.111077,72.903566 C221.615309,72.6549623 222.223234,72.8628113 222.471284,73.3691887 L225.667467,79.8950377 C225.915517,80.3993774 225.708131,81.0096792 225.203898,81.2572642 C225.059541,81.3285849 224.907052,81.3622075 224.756595,81.3622075" id="Fill-79" fill="#00735D"></path>
                    <path d="M230.462046,92.001634 C230.096071,92.001634 229.742295,91.8039736 229.560324,91.4565396 L227.564743,87.642917 C227.333975,87.2007283 226.882606,86.9276717 226.386506,86.9276717 L215.059577,86.9276717 C214.497398,86.9276717 214.042979,86.4712189 214.042979,85.9088038 C214.042979,85.3453698 214.497398,84.8899358 215.059577,84.8899358 L226.386506,84.8899358 C227.640988,84.8899358 228.782627,85.5817472 229.366154,86.6953698 L231.361734,90.5089925 C231.621983,91.0072189 231.430863,91.623634 230.93273,91.885483 C230.782274,91.9639358 230.620635,92.001634 230.462046,92.001634" id="Fill-81" fill="#00735D"></path>
                    <path d="M262.68412,60.3810679 C260.738353,60.7692566 259.410676,62.5991434 259.410676,64.5869547 L259.410676,75.8749925 C259.410676,76.3905396 258.762087,76.618766 258.443892,76.2132566 C254.776008,71.5529547 250.547979,66.1560113 247.283685,61.9817094 C246.47549,60.9475585 245.25049,60.2659358 243.940095,60.2903887 C241.573456,60.3342 239.841174,62.2292943 239.841174,64.4259736 L239.841174,89.0397849 C239.841174,91.0275962 241.168851,92.857483 243.113602,93.2456717 C245.759805,93.7734453 248.080697,91.7591434 248.080697,89.200766 L248.080697,78.4354075 C248.080697,77.7578604 248.934639,77.4603509 249.353477,77.9932189 C249.717419,78.4568038 250.083394,78.9234453 250.449369,79.3890679 C252.891237,82.4955962 255.33717,85.6000868 257.182295,87.9251434 C258.113498,89.0978604 258.893228,90.0749547 259.446257,90.7565774 C260.316465,91.831483 261.551631,93.3557094 263.478083,93.3557094 C263.984349,93.3557094 264.539411,93.250766 265.14632,93.0042 C266.697647,92.3745396 267.651216,90.7912189 267.651216,89.1141623 L267.651216,64.4259736 C267.651216,61.8675962 265.330324,59.8532943 262.68412,60.3810679" id="Fill-83" fill="#FCD70C"></path>
                    <path d="M242.803234,92.7338943 C242.730039,92.7338943 242.655828,92.7257434 242.581616,92.7104604 C241.771388,92.5291019 240.240392,91.5499698 240.240392,89.1372906 L240.240392,65.9101585 C240.240392,65.3467245 240.695828,64.8912906 241.25699,64.8912906 C241.819168,64.8912906 242.273587,65.3467245 242.273587,65.9101585 L242.273587,89.1372906 C242.273587,90.5148 243.014687,90.7185736 243.02282,90.7195925 C243.570766,90.8428755 243.916409,91.3869509 243.794417,91.9361208 C243.689707,92.4109132 243.268836,92.7338943 242.803234,92.7338943" id="Fill-85" fill="#00735D"></path>
                    <path d="M260.6984,79.8318679 C260.137239,79.8318679 259.681803,79.376434 259.681803,78.813 L259.681803,65.9100566 C259.681803,65.3466226 260.137239,64.8911887 260.6984,64.8911887 C261.259562,64.8911887 261.714998,65.3466226 261.714998,65.9100566 L261.714998,78.813 C261.714998,79.376434 261.259562,79.8318679 260.6984,79.8318679" id="Fill-87" fill="#00735D"></path>
                    <path d="M262.383106,63.1572792 C262.383106,63.7033925 261.940886,64.1466 261.39599,64.1466 C260.851093,64.1466 260.408873,63.7033925 260.408873,63.1572792 C260.408873,62.611166 260.851093,62.1679585 261.39599,62.1679585 C261.940886,62.1679585 262.383106,62.611166 262.383106,63.1572792" id="Fill-89" fill="#00735D"></path>
                    <path d="M262.973342,92.7338943 C261.491143,92.7338943 260.646351,91.5530264 260.555873,91.4185358 L249.345853,77.3194415 C248.996143,76.8792906 249.068322,76.2384226 249.507492,75.8879321 C249.946662,75.5374415 250.586102,75.6087623 250.936828,76.0499321 L262.190562,90.2101585 C262.231226,90.2651774 262.548405,90.6961585 262.973342,90.6961585 C263.534504,90.6961585 263.98994,91.1515925 263.98994,91.7150264 C263.98994,92.2784604 263.534504,92.7338943 262.973342,92.7338943" id="Fill-91" fill="#00735D"></path>
                    <path d="M280.268817,70.3528302 C280.268817,69.3849057 281.078029,68.6064906 282.04278,68.6594717 C284.474481,68.7909057 290.740788,70.2672453 290.740788,76.8236604 C290.740788,83.3800755 284.379938,84.8329811 282.04888,84.972566 C281.082095,85.0296226 280.268817,84.2501887 280.268817,83.2792075 L280.268817,70.3528302 Z M276.155664,93.3395094 L276.634481,93.3395094 L277.164129,93.3395094 C281.536515,93.3395094 286.852303,93.2753208 291.489004,91.5361132 C297.96168,89.1071321 301.383548,84.0209434 301.383548,76.8236604 C301.383548,69.6182264 298.029793,64.5340755 291.685207,62.1173208 C286.913299,60.2996604 281.228485,60.3118868 276.659896,60.3057736 L276.155664,60.3057736 C273.876452,60.3057736 272.028278,62.1580755 272.028278,64.4423774 L272.028278,89.2029057 C272.028278,91.4872075 273.876452,93.3395094 276.155664,93.3395094 L276.155664,93.3395094 Z" id="Fill-93" fill="#FCD70C"></path>
                    <path d="M273.44511,90.8504151 C272.883948,90.8504151 272.428512,90.3949811 272.428512,89.8315472 L272.428512,65.918717 C272.428512,65.3563019 272.883948,64.8998491 273.44511,64.8998491 C274.006272,64.8998491 274.461707,65.3563019 274.461707,65.918717 L274.461707,89.8315472 C274.461707,90.3949811 274.006272,90.8504151 273.44511,90.8504151" id="Fill-95" fill="#00735D"></path>
                    <path d="M292.28439,77.7126226 C291.755759,77.7126226 291.309473,77.3030377 291.270842,76.7660943 C290.869286,71.1001698 287.369141,68.2259434 280.869017,68.2259434 C280.307855,68.2259434 279.852419,67.7705094 279.852419,67.2070755 C279.852419,66.6446604 280.307855,66.1882075 280.869017,66.1882075 C288.407087,66.1882075 292.821154,69.8938302 293.299971,76.6214151 C293.339618,77.1817925 292.91773,77.6698302 292.357585,77.709566 C292.333187,77.7116038 292.308788,77.7126226 292.28439,77.7126226" id="Fill-97" fill="#00735D"></path>
                    <path d="M280.869525,92.7428604 C280.308363,92.7428604 279.852927,92.2874264 279.852927,91.7239925 C279.852927,91.1615774 280.308363,90.7051245 280.869525,90.7051245 C280.916288,90.7051245 285.643467,90.6878038 289.211724,89.4702566 C289.740355,89.2838038 290.319815,89.5741811 290.501786,90.1060302 C290.681724,90.6388981 290.398093,91.2176151 289.866413,91.3989736 C285.974878,92.7275774 281.075894,92.7428604 280.869525,92.7428604" id="Fill-99" fill="#00735D"></path>
                    <path d="M311.426515,79.2925811 L311.426515,89.0584302 C311.426515,91.0462415 312.754191,92.8761283 314.699959,93.264317 C317.346162,93.7920906 319.667054,91.7767698 319.667054,89.2194113 L319.667054,79.1479019 C319.856141,78.5905811 320.029979,78.0780906 320.220083,77.5197509 L328.284751,67.0345811 C329.376577,65.6132604 329.538216,63.6122038 328.509419,62.1440151 C326.803568,59.7079019 323.460996,59.7782038 321.811058,61.9229208 L315.891411,69.6204679 C315.650477,69.9342792 315.180809,69.9424302 314.928693,69.6388075 L308.467199,61.8679019 C307.321494,60.4893736 305.406224,59.8963925 303.753237,60.5831094 C301.00944,61.7232226 300.350685,65.0060151 302.08195,67.0875623 L310.80944,77.5859774 C311.021909,78.1718264 311.215062,78.7057132 311.426515,79.2925811" id="Fill-101" fill="#FCD70C"></path>
                    <path d="M323.872515,63.1756189 C323.872515,63.7217321 323.430295,64.1649396 322.885398,64.1649396 C322.340502,64.1649396 321.898282,63.7217321 321.898282,63.1756189 C321.898282,62.6295057 322.340502,62.1862981 322.885398,62.1862981 C323.430295,62.1862981 323.872515,62.6295057 323.872515,63.1756189" id="Fill-103" fill="#00735D"></path>
                    <path d="M314.752822,92.5528415 C312.999191,92.5528415 312.219461,90.8370679 312.035456,89.8232943 C312.024274,89.7642 312.019191,89.7020491 312.019191,89.6419358 L312.019191,78.6972566 C312.019191,78.2795208 311.873817,77.8719736 311.609502,77.5479736 L302.222241,66.5931057 C301.856266,66.1662 301.905062,65.5232943 302.331017,65.155483 C302.756971,64.7886906 303.399461,64.8386151 303.764419,65.2655208 L313.166929,76.2387283 C313.74334,76.9437849 314.052386,77.8098226 314.052386,78.6972566 L314.052386,89.5308792 C314.124564,89.8131057 314.371598,90.5151057 314.752822,90.5151057 C315.313983,90.5151057 315.769419,90.9705396 315.769419,91.5339736 C315.769419,92.0974075 315.313983,92.5528415 314.752822,92.5528415" id="Fill-105" fill="#00735D"></path>
                    <path d="M317.296755,71.1376642 C317.070054,71.1376642 316.842336,71.0622679 316.653249,70.9074 C316.219162,70.5507962 316.155116,69.9089094 316.510925,69.4738528 L320.372979,64.7422302 C320.728788,64.3051358 321.369245,64.2429849 321.804349,64.5975509 C322.238436,64.9551736 322.302481,65.5970604 321.946672,66.0310981 L318.083602,70.7637396 C317.883332,71.0103057 317.591568,71.1376642 317.296755,71.1376642" id="Fill-107" fill="#00735D"></path>
                </g>
            </g>
        </g>
    </g>
</svg>