<svg xmlns="http://www.w3.org/2000/svg" viewBox="0 0 433.6 91.6" enable-background="new 0 0 433.6 91.6"><style type="text/css">.st0{fill:#FF6418;}</style><path class="st0" d="M94.6 25.5c.4-5-2.2-7.9-7.2-7.9-5.5 0-9.7 4.7-11.4 14-1.2 6.8-.8 13.1 7.2 13.1 5.1 0 8.1-3.5 9.5-8.2h15.2c-3.6 12.5-13.8 20-26.5 20-15.9 0-23.8-9.8-21.1-25.4 2.7-15.6 15-25.3 28.4-25.3 14.7 0 21.6 7.3 20.7 19.6h-14.8zM44.3 20.1c0-1.7-.7-2.8-1.8-3.4-1.1-.6-2.5-.9-4.1-.9-3.6 0-5.4 1-5.7 2.8-1.3 7.5 28.1 2.8 24.9 20.9-2 11.5-12.6 17.1-26.3 17.1-13.1 0-20.3-7.7-19.1-16.6h15.6c0 1.8.8 3.1 2 3.9 1.2.8 2.8 1.2 4.4 1.2 4.1 0 7-1.3 7.4-3.7 1.3-7.5-28.2-2.3-24.8-21.3 2-10.4 12-15.7 24.4-15.7 13.8 0 18.9 7 18.5 15.7h-15.4zM115.5 6.8h15.6l-2.6 16.2h14.5l2.7-16.2h15.8l-8.3 48.7h-15.7l3-18.8h-14.6l-3.4 18.9h-15.6zM158.5 55.5l8.5-48.8h14.7l13 23.9 3.8-23.9h14.7l-8.6 48.9h-14.4l-13-21.3-3.7 21.3zM219 6.7h39l-2 11.4h-23.3l-1.1 7h15.4l-1.6 11.2h-15.9l-1.1 7.8h24.1l-2 11.3h-39.7zM334.5 6.7h39l-2 11.4h-23.3l-1.1 7h15.4l-1.6 11.2h-15.9l-1.1 7.8h24.1l-2 11.3h-39.7zM263.4 6.8h15.6l-8.5 48.7h-15.5zM284.7 6.7h22.9s16.8-.3 19.2 13.6-6.8 27.2-11.8 30.4c-5 3.2-8.7 4.8-19.9 4.8h-19l8.6-48.8zm9.2 36.6c12.3 0 13.7-3.4 15.4-5.5 2.1-2.6 4.2-11.3 2.4-15.6-2.2-5.5-13.2-4-13.2-4l-4.6 25.1zM377.8 6.8h25.9s13.4-1 15.3 7.8c1.8 8.8-1.8 15.5-9.7 18.1 0 0 7.8 1.3 6.6 8.3-1.2 7-2.6 14.3-2.6 14.3h-15.3l1.8-11.2s1.7-5.8-5.8-5.8h-5.8l-3 16.9h-15.7l8.3-48.4zm12.2 21.1s8 .4 11.1-.8c3.1-1.2 4.7-5.6 1.9-7.8-2-1.6-11.3-1.2-11.3-1.2l-1.7 9.8zM4.4 87.2l3.6-21.1h163.7l-2.9 16.4 19.6-16.3h223.7l-3.6 21zM429.7 10.5c0 2.1-1.7 3.8-3.8 3.8-2.2 0-3.9-1.7-3.9-3.8 0-2.1 1.7-3.8 3.9-3.8 2.1 0 3.8 1.7 3.8 3.8zm-6.8 0c0 1.7 1.2 3 2.9 3 1.6 0 2.9-1.3 2.9-3s-1.2-3-2.9-3c-1.6 0-2.9 1.3-2.9 3zm2.4 1.9h-.9v-3.7c.3-.1.8-.1 1.4-.1.7 0 1 .1 1.3.3.2.2.4.5.4.8 0 .4-.3.7-.8.9.4.1.6.4.7.9.1.6.2.8.3.9h-.9c-.1-.1-.2-.5-.3-.9-.1-.4-.3-.6-.8-.6h-.4v1.5zm0-2.1h.4c.5 0 .9-.2.9-.5s-.3-.6-.8-.6h-.5v1.1z"/></svg>