<?xml version="1.0" standalone="no"?><!DOCTYPE svg PUBLIC "-//W3C//DTD SVG 1.1//EN" "http://www.w3.org/Graphics/SVG/1.1/DTD/svg11.dtd"><svg width="100%" height="100%" viewBox="0 0 47 28" version="1.1" xmlns="http://www.w3.org/2000/svg" xmlns:xlink="http://www.w3.org/1999/xlink" xml:space="preserve" style="fill-rule:evenodd;clip-rule:evenodd;stroke-linejoin:round;stroke-miterlimit:1.41421;"><g><g><path d="M23.393,0c-3.121,0 -6.096,0.354 -8.823,0.992c-7.871,1.864 -14.57,6.495 -14.57,12.85c0,6.365 6.699,10.981 14.57,12.85c2.727,0.649 5.702,1.002 8.823,1.002c3.12,0 6.101,-0.354 8.837,-1.002c7.866,-1.869 14.57,-6.485 14.57,-12.85c0,-6.355 -6.704,-10.986 -14.57,-12.85c-2.736,-0.638 -5.717,-0.992 -8.837,-0.992Z" style="fill:#1f419a;"/><path d="M23.368,0.728c-3.071,0 -6.002,0.344 -8.668,0.972c-7.826,1.864 -14.027,6.355 -14.027,12.172c0,5.817 6.201,10.313 14.027,12.157c2.666,0.638 5.597,0.987 8.668,0.987c3.07,0 5.996,-0.349 8.663,-0.987c7.831,-1.844 14.021,-6.34 14.021,-12.157c0,-5.817 -6.19,-10.308 -14.021,-12.172c-2.667,-0.628 -5.593,-0.972 -8.663,-0.972Z" style="fill:#fff;"/><path d="M23.378,1.331c-3.016,0 -5.887,0.349 -8.514,0.957c-7.796,1.859 -13.523,6.226 -13.523,11.534c0,5.319 5.727,9.69 13.523,11.519c2.627,0.633 5.498,0.972 8.514,0.972c3.025,0 5.896,-0.339 8.503,-0.971c7.806,-1.83 13.538,-6.201 13.538,-11.52c0,-5.309 -5.732,-9.675 -13.538,-11.534c-2.607,-0.608 -5.478,-0.957 -8.503,-0.957Z" style="fill:#1f419a;"/><path d="M23.368,1.754c-11.948,0.001 -21.643,5.414 -21.643,12.103c0,6.689 9.695,12.103 21.643,12.103c11.947,0 21.643,-5.414 21.643,-12.103c0,-6.689 -9.696,-12.102 -21.643,-12.103Z" style="fill:#fff200;"/><path d="M23.368,1.7c-11.948,0 -21.673,5.423 -21.673,12.142c0,6.704 9.725,12.132 21.673,12.132c11.952,0.001 21.692,-5.428 21.692,-12.132c0,-6.719 -9.74,-12.142 -21.692,-12.142Z" style="fill:#fff200;"/><path d="M12.083,18.931l-0.001,0.085c0.076,0 0.125,0.01 0.145,0.025c0.02,0.015 0.03,0.035 0.03,0.08c0,0.005 0,0.01 0,0.035c0,0.005 -0.01,0.03 -0.015,0.074l-0.279,1.222c-0.025,0.134 -0.055,0.204 -0.084,0.239c-0.035,0.04 -0.095,0.055 -0.165,0.06l0,0.084l0.005,0c0.1,-0.005 0.189,-0.02 0.244,-0.02c0.055,0 0.16,0.015 0.279,0.02l0.005,0.001l0,-0.085c-0.06,0 -0.094,-0.005 -0.124,-0.02c-0.025,-0.015 -0.041,-0.05 -0.04,-0.09c0,-0.005 0,-0.035 0.015,-0.065c0,-0.035 0.005,-0.07 0.02,-0.124l0.209,-1.012l0.279,1.39l0.03,0l0.877,-1.39l-0.254,1.076c-0.03,0.105 -0.06,0.165 -0.095,0.2c-0.03,0.03 -0.1,0.035 -0.194,0.035l0,0.085c0.01,-0.001 0.03,-0.001 0.05,-0.001c0.174,-0.005 0.299,-0.02 0.378,-0.02c0.045,0 0.145,0.015 0.295,0.015c0.064,0.005 0.099,0.005 0.139,0.005l0,-0.084c-0.07,0 -0.114,-0.005 -0.139,-0.02c-0.025,-0.015 -0.04,-0.04 -0.04,-0.06c0,-0.03 0,-0.065 0.02,-0.12l0,-0.01l0.284,-1.29c0.025,-0.095 0.045,-0.16 0.084,-0.19c0.021,-0.025 0.085,-0.035 0.16,-0.045l0,-0.085c-0.035,0 -0.09,0.005 -0.145,0.005c-0.039,0 -0.099,0 -0.164,0.001c-0.025,-0.001 -0.06,-0.001 -0.114,-0.001c-0.05,0 -0.075,0 -0.11,0l-0.778,1.261l-0.254,-1.261c-0.169,0 -0.309,0 -0.379,-0.005c-0.065,0 -0.125,0 -0.174,0Z" style="fill:#1f419a;"/><path d="M15.103,19.734c-0.015,-0.055 -0.04,-0.1 -0.099,-0.125c-0.03,-0.03 -0.095,-0.045 -0.145,-0.045c-0.085,0 -0.174,0.015 -0.249,0.065c-0.085,0.035 -0.16,0.095 -0.244,0.175c-0.085,0.104 -0.155,0.219 -0.215,0.339c-0.04,0.129 -0.07,0.244 -0.069,0.354c0,0.119 0.029,0.209 0.084,0.279c0.06,0.059 0.14,0.089 0.235,0.089c0.099,0 0.179,-0.03 0.249,-0.084c0.09,-0.07 0.159,-0.16 0.244,-0.3c-0.015,0.065 -0.02,0.105 -0.02,0.14c-0.005,0.03 -0.005,0.05 -0.005,0.08c0,0.045 0.01,0.094 0.04,0.125c0.05,0.019 0.085,0.039 0.144,0.039c0.09,0 0.175,-0.035 0.26,-0.104c0.069,-0.085 0.154,-0.19 0.214,-0.349l-0.06,-0.04c-0.035,0.055 -0.065,0.105 -0.094,0.144c-0.035,0.03 -0.055,0.055 -0.08,0.055c-0.015,0 -0.025,-0.01 -0.035,-0.025c0,-0.01 -0.01,-0.02 -0.01,-0.035c0,-0.014 0,-0.029 0.01,-0.034c0,-0.021 0,-0.03 0.01,-0.05l0.239,-0.862l-0.354,-0.001l-0.05,0.17Z" style="fill:#1f419a;"/><path d="M16.464,18.842l-0.573,0.124l0,0.07c0,0 0.01,0 0.015,0c0.03,0 0.055,0 0.065,0c0.035,0 0.054,0 0.074,0.01c0.015,0.01 0.02,0.02 0.02,0.045c0,0.01 -0.005,0.035 -0.02,0.07c0,0.029 -0.015,0.045 -0.015,0.054l-0.354,1.615l0.349,0.001l0.125,-0.534l0.13,-0.105c0.035,0.254 0.07,0.429 0.124,0.529c0.06,0.104 0.15,0.144 0.254,0.144c0.06,0 0.145,-0.03 0.195,-0.089c0.06,-0.07 0.114,-0.17 0.174,-0.315l-0.065,-0.034c-0.029,0.054 -0.054,0.099 -0.089,0.134c-0.02,0.02 -0.05,0.025 -0.07,0.025c-0.04,0 -0.065,-0.015 -0.085,-0.06c-0.025,-0.045 -0.039,-0.104 -0.055,-0.174l-0.07,-0.389l0.215,-0.149c0.08,-0.055 0.14,-0.095 0.195,-0.125c0.059,-0.02 0.104,-0.025 0.159,-0.035l0,-0.06c-0.055,0.005 -0.1,0.005 -0.164,0.005c-0.055,0 -0.1,0.01 -0.145,0.01c-0.045,0 -0.105,-0.01 -0.154,-0.01c-0.05,0 -0.11,0 -0.18,-0.004l0,0.059c0.055,0.01 0.094,0.01 0.13,0.015c0.015,0.01 0.034,0.03 0.034,0.05c0,0.015 -0.004,0.04 -0.02,0.059c-0.015,0.015 -0.035,0.036 -0.069,0.05l-0.409,0.3l0.279,-1.286Z" style="fill:#1f419a;"/><path d="M17.88,19.564l-0.623,0.125l0,0.07l0.075,0c0.049,0 0.059,0 0.074,0.01c0.015,0.01 0.015,0.02 0.015,0.045c0,0 0,0.014 0,0.044c-0.005,0.025 -0.014,0.056 -0.015,0.09l-0.144,0.514c-0.001,0.015 0,0.019 -0.001,0.035c-0.03,0.089 -0.034,0.154 -0.034,0.204c0,0.045 0.02,0.095 0.055,0.125c0.034,0.019 0.089,0.039 0.139,0.039c0.1,0 0.195,-0.035 0.279,-0.104c0.075,-0.09 0.14,-0.2 0.215,-0.349l-0.075,-0.04c-0.02,0.065 -0.05,0.105 -0.08,0.144c-0.025,0.03 -0.055,0.055 -0.08,0.055c-0.01,0 -0.015,-0.01 -0.024,-0.025c-0.011,-0.01 -0.02,-0.02 -0.02,-0.035c0,-0.014 0,-0.03 0,-0.034c0.01,-0.016 0.009,-0.03 0.019,-0.05l0.225,-0.863Z" style="fill:#1f419a;"/><path d="M17.73,18.896c-0.05,0 -0.104,0.02 -0.139,0.06c-0.035,0.055 -0.055,0.1 -0.055,0.155c0,0.05 0.02,0.104 0.055,0.139c0.035,0.035 0.089,0.055 0.139,0.055c0.055,0 0.1,-0.02 0.155,-0.055c0.04,-0.035 0.059,-0.089 0.06,-0.139c0,-0.055 -0.02,-0.1 -0.06,-0.155c-0.055,-0.04 -0.1,-0.06 -0.155,-0.06Z" style="fill:#1f419a;"/><path d="M18.712,19.564l-0.578,0.125l0,0.07c0,0 0.01,0 0.015,0c0.03,0 0.05,0 0.075,0c0.02,0 0.045,0 0.055,0.01c0.014,0.009 0.024,0.02 0.024,0.045c0,0.009 -0.01,0.045 -0.03,0.114l0,0.02l-0.194,0.882l0.349,0l0.125,-0.543c0.089,-0.14 0.179,-0.234 0.249,-0.324c0.07,-0.08 0.124,-0.115 0.17,-0.114c0.019,0 0.024,0.009 0.03,0.014c0.014,0.015 0.029,0.031 0.029,0.05c0,0.03 -0.015,0.04 -0.015,0.07c-0.015,0.035 -0.015,0.06 -0.02,0.09l-0.124,0.388c0,0.016 0,0.02 0,0.035c-0.015,0.085 -0.03,0.125 -0.03,0.175c0,0.065 0.025,0.11 0.049,0.139c0.036,0.035 0.085,0.055 0.16,0.055c0.08,0 0.169,-0.035 0.249,-0.119c0.07,-0.075 0.15,-0.185 0.21,-0.334l-0.06,-0.04c-0.035,0.065 -0.065,0.105 -0.1,0.144c-0.025,0.03 -0.04,0.055 -0.07,0.055c-0.015,0 -0.025,-0.01 -0.034,-0.025c-0.005,-0.01 -0.005,-0.02 -0.005,-0.035c0,-0.014 0,-0.029 0,-0.049c0,-0.006 0.005,-0.015 0.005,-0.035l0.139,-0.534c0.015,-0.035 0.02,-0.049 0.02,-0.079c0.01,-0.021 0.01,-0.045 0.01,-0.06c0,-0.065 -0.015,-0.11 -0.045,-0.14c-0.035,-0.035 -0.07,-0.05 -0.124,-0.049c-0.09,0 -0.165,0.034 -0.27,0.104c-0.104,0.085 -0.229,0.214 -0.389,0.419l0.125,-0.524Z" style="fill:#1f419a;"/><path d="M20.746,19.724c0.005,0 0.02,-0.005 0.025,-0.005c0.01,0 0.025,0 0.03,0c0.015,0 0.035,0.005 0.064,0.03c0.01,0.01 0.04,0.01 0.06,0.01c0.03,0 0.04,-0.005 0.065,-0.025c0.01,-0.015 0.025,-0.045 0.025,-0.07c0,-0.035 -0.015,-0.055 -0.025,-0.08c-0.025,-0.025 -0.05,-0.04 -0.07,-0.04c-0.03,0.001 -0.055,0.015 -0.089,0.04c-0.035,0.015 -0.085,0.045 -0.15,0.08c-0.025,-0.03 -0.07,-0.055 -0.13,-0.07c-0.054,-0.02 -0.104,-0.034 -0.184,-0.035c-0.16,0 -0.284,0.05 -0.394,0.155c-0.12,0.1 -0.179,0.229 -0.179,0.364c0,0.065 0.02,0.129 0.054,0.174c0.026,0.065 0.07,0.105 0.14,0.14c-0.104,0.029 -0.194,0.064 -0.249,0.114c-0.05,0.03 -0.08,0.08 -0.08,0.13c0,0.015 0.01,0.04 0.03,0.07c0.015,0.02 0.06,0.05 0.14,0.09c-0.14,0.039 -0.24,0.089 -0.299,0.139c-0.055,0.05 -0.085,0.105 -0.085,0.19c0,0.089 0.055,0.159 0.159,0.219c0.1,0.055 0.25,0.084 0.434,0.085c0.199,0 0.379,-0.035 0.494,-0.12c0.124,-0.075 0.184,-0.184 0.184,-0.334c0,-0.06 -0.025,-0.115 -0.07,-0.16c-0.04,-0.054 -0.129,-0.089 -0.229,-0.139c-0.055,-0.01 -0.125,-0.04 -0.21,-0.06c-0.109,-0.045 -0.184,-0.09 -0.184,-0.105c0,-0.005 0.015,-0.02 0.015,-0.034c0.005,-0.005 0.02,-0.03 0.045,-0.035c0.015,0 0.035,-0.001 0.055,0.005c0.03,0 0.06,0 0.084,0c0.18,0 0.31,-0.041 0.434,-0.13c0.11,-0.11 0.175,-0.224 0.175,-0.364c0,-0.04 -0.015,-0.075 -0.03,-0.124c-0.005,-0.04 -0.03,-0.07 -0.055,-0.105Z" style="fill:#1f419a;"/><path d="M22.092,18.931l0,0.085c0.074,0 0.114,0.01 0.13,0.025c0.029,0.015 0.044,0.035 0.044,0.08c0,0.01 -0.015,0.045 -0.025,0.11l-0.284,1.285c-0.025,0.105 -0.055,0.165 -0.09,0.2c-0.034,0.03 -0.105,0.035 -0.194,0.035l0,0.085c0.065,-0.001 0.145,-0.006 0.214,-0.006c0.07,0 0.155,0 0.24,0l0.977,0c0.049,-0.099 0.084,-0.194 0.114,-0.289c0.04,-0.109 0.075,-0.184 0.105,-0.269l-0.1,0c-0.07,0.135 -0.164,0.244 -0.294,0.319c-0.11,0.065 -0.234,0.1 -0.374,0.1l-0.09,0c-0.03,0 -0.04,0 -0.064,-0.01c-0.005,-0.005 -0.01,-0.01 -0.01,-0.025c0,-0.015 0,-0.015 0,-0.02c0.005,0 0.005,-0.015 0.005,-0.025l0.299,-1.36c0.02,-0.095 0.05,-0.16 0.084,-0.19c0.035,-0.025 0.09,-0.035 0.16,-0.045l0,-0.085c-0.08,0.005 -0.16,0.005 -0.224,0.005c-0.06,0.01 -0.125,0.01 -0.185,0.01c-0.059,0 -0.119,0 -0.189,-0.01c-0.075,0 -0.16,0 -0.249,-0.005Z" style="fill:#1f419a;"/><path d="M24.145,19.564l-0.623,0.125l0,0.07c0.005,0 0.01,0 0.025,0c0.03,0 0.045,0 0.05,0c0.05,0 0.06,0 0.075,0.01c0.015,0.009 0.015,0.02 0.015,0.045c0,0 0,0.015 0,0.044c-0.006,0.025 -0.015,0.055 -0.015,0.09l-0.145,0.513c0,0.016 0,0.02 0,0.036c-0.03,0.089 -0.035,0.154 -0.035,0.204c0,0.045 0.02,0.094 0.055,0.124c0.035,0.02 0.09,0.04 0.14,0.04c0.099,0 0.194,-0.035 0.279,-0.104c0.075,-0.09 0.139,-0.2 0.215,-0.349l-0.076,-0.04c-0.02,0.065 -0.049,0.105 -0.08,0.144c-0.024,0.03 -0.054,0.055 -0.079,0.055c-0.01,0 -0.015,-0.01 -0.025,-0.025c-0.01,-0.01 -0.02,-0.02 -0.02,-0.035c0,-0.014 0,-0.029 0,-0.034c0.01,-0.015 0.01,-0.03 0.02,-0.05l0.224,-0.863Z" style="fill:#1f419a;"/><path d="M24.006,18.896c-0.05,0 -0.105,0.02 -0.14,0.06c-0.035,0.055 -0.055,0.1 -0.055,0.155c0,0.05 0.02,0.104 0.055,0.139c0.035,0.035 0.09,0.055 0.14,0.055c0.054,0 0.1,-0.02 0.154,-0.055c0.04,-0.035 0.06,-0.089 0.06,-0.139c0,-0.055 -0.02,-0.1 -0.06,-0.155c-0.054,-0.04 -0.099,-0.06 -0.154,-0.06Z" style="fill:#1f419a;"/><path d="M25.052,19.559c0,-0.029 0.001,-0.05 0.01,-0.074c0,-0.025 0,-0.05 0,-0.07c0.001,-0.035 0,-0.07 -0.009,-0.13c0,-0.045 -0.001,-0.094 -0.001,-0.124c0.001,-0.045 0.01,-0.09 0.021,-0.11c0.019,-0.03 0.034,-0.04 0.054,-0.04c0.025,0 0.05,0.025 0.075,0.09c0.01,0.02 0.02,0.025 0.03,0.035c0.005,0.02 0.025,0.025 0.04,0.04c0.03,0.01 0.05,0.015 0.079,0.014c0.04,0.001 0.075,-0.015 0.1,-0.04c0.03,-0.029 0.045,-0.064 0.045,-0.119c0,-0.055 -0.02,-0.1 -0.07,-0.135c-0.035,-0.034 -0.089,-0.054 -0.169,-0.054c-0.115,0 -0.229,0.054 -0.334,0.169c-0.11,0.125 -0.17,0.299 -0.23,0.513l-0.024,0.13l-0.274,0l-0.001,0.105l0.245,0l-0.06,0.259c-0.045,0.224 -0.08,0.459 -0.105,0.693c-0.015,0.239 -0.035,0.364 -0.035,0.369c-0.009,0.054 -0.019,0.099 -0.034,0.124c-0.02,0.03 -0.05,0.045 -0.07,0.045c-0.02,0 -0.04,-0.015 -0.075,-0.065c0,-0.004 -0.01,-0.019 -0.015,-0.034c-0.02,-0.025 -0.035,-0.05 -0.055,-0.07c-0.03,-0.005 -0.045,-0.02 -0.07,-0.02c-0.054,0 -0.09,0.02 -0.119,0.05c-0.03,0.035 -0.035,0.069 -0.035,0.119c0,0.055 0.02,0.11 0.064,0.145c0.036,0.034 0.095,0.055 0.16,0.055c0.165,0 0.304,-0.1 0.414,-0.295c0.114,-0.204 0.219,-0.533 0.334,-1.006l0.07,-0.369l0.249,0l0,-0.105l-0.22,0l0.015,-0.095Z" style="fill:#1f419a;"/><path d="M25.621,20.302c0.269,0 0.473,-0.035 0.633,-0.124c0.149,-0.075 0.219,-0.205 0.219,-0.355c0,-0.069 -0.025,-0.144 -0.09,-0.189c-0.07,-0.04 -0.159,-0.069 -0.269,-0.07c-0.1,0 -0.204,0.015 -0.299,0.05c-0.085,0.05 -0.169,0.09 -0.249,0.175c-0.115,0.094 -0.21,0.219 -0.259,0.319c-0.04,0.099 -0.07,0.224 -0.07,0.348c0,0.13 0.035,0.23 0.104,0.305c0.09,0.069 0.19,0.104 0.34,0.104c0.119,0 0.244,-0.035 0.344,-0.099c0.109,-0.065 0.214,-0.18 0.308,-0.329l-0.059,-0.045c-0.055,0.085 -0.14,0.144 -0.21,0.189c-0.05,0.035 -0.124,0.055 -0.194,0.055c-0.085,0 -0.14,-0.02 -0.189,-0.065c-0.04,-0.055 -0.075,-0.124 -0.075,-0.204c0,-0.01 0,-0.03 0,-0.035c0,-0.01 0.015,-0.025 0.015,-0.03Z" style="fill:#1f419a;"/><path d="M27.635,18.931l0,0.085c0.069,0 0.119,0.01 0.139,0.025c0.02,0.015 0.045,0.035 0.045,0.08c0,0.01 -0.015,0.045 -0.025,0.109l-0.289,1.286c-0.02,0.105 -0.05,0.165 -0.085,0.2c-0.035,0.03 -0.104,0.035 -0.194,0.035l0,0.084c0.04,0.001 0.12,-0.005 0.199,-0.005c0.095,0 0.274,0 0.523,0l0.763,0l0.01,-0.03c0.035,-0.189 0.075,-0.353 0.125,-0.473l-0.1,0c-0.04,0.12 -0.125,0.224 -0.229,0.279c-0.105,0.065 -0.25,0.085 -0.414,0.085l-0.1,0c-0.024,0 -0.05,0 -0.06,-0.01c-0.014,-0.005 -0.014,-0.01 -0.014,-0.025c0,-0.01 0,-0.015 0,-0.02c-0.001,-0.015 0.014,-0.025 0.014,-0.025l0.14,-0.698l0.194,0c0.08,0.001 0.135,0.005 0.16,0.02c0.02,0.02 0.035,0.06 0.035,0.11c0,0.015 0,0.03 -0.01,0.04c0,0.025 0,0.049 -0.005,0.085l0.075,0c0.02,-0.085 0.044,-0.175 0.064,-0.285c0.025,-0.099 0.05,-0.209 0.08,-0.319l-0.08,0c-0.02,0.075 -0.064,0.13 -0.104,0.165c-0.035,0.03 -0.105,0.045 -0.205,0.045l-0.169,0l0.145,-0.633c0.004,-0.035 0.015,-0.05 0.024,-0.065c0.01,-0.005 0.025,-0.005 0.07,-0.005l0.17,0c0.119,0 0.184,0.025 0.229,0.07c0.055,0.045 0.075,0.149 0.075,0.269l0.089,0c0,-0.055 0.015,-0.125 0.02,-0.21c0.015,-0.074 0.03,-0.159 0.05,-0.269l-0.917,0.005c-0.13,0 -0.234,0 -0.284,-0.005c-0.055,0 -0.11,0 -0.154,0Z" style="fill:#1f419a;"/><path d="M30.007,19.734c-0.015,-0.055 -0.04,-0.1 -0.1,-0.125c-0.029,-0.03 -0.094,-0.045 -0.144,-0.044c-0.085,0 -0.175,0.014 -0.249,0.064c-0.085,0.035 -0.16,0.095 -0.245,0.175c-0.084,0.104 -0.154,0.219 -0.214,0.339c-0.04,0.129 -0.07,0.244 -0.07,0.354c0,0.119 0.03,0.209 0.085,0.279c0.06,0.059 0.14,0.089 0.234,0.089c0.1,0 0.18,-0.029 0.249,-0.084c0.09,-0.07 0.16,-0.16 0.245,-0.3c-0.015,0.065 -0.021,0.105 -0.02,0.14c-0.005,0.03 -0.005,0.05 -0.006,0.08c0.001,0.045 0.011,0.094 0.041,0.125c0.049,0.019 0.085,0.039 0.144,0.039c0.09,0 0.175,-0.035 0.26,-0.104c0.069,-0.085 0.154,-0.19 0.214,-0.349l-0.06,-0.04c-0.035,0.055 -0.065,0.105 -0.095,0.144c-0.035,0.03 -0.054,0.055 -0.079,0.055c-0.016,0 -0.026,-0.01 -0.035,-0.025c0,-0.01 -0.01,-0.02 -0.01,-0.035c-0.001,-0.014 -0.001,-0.029 0.01,-0.034c0,-0.021 0,-0.031 0.009,-0.05l0.24,-0.862l-0.354,-0.001l-0.05,0.17Z" style="fill:#1f419a;"/><path d="M31.572,19.609c-0.01,0 -0.025,0 -0.03,0c-0.015,0 -0.03,0 -0.035,0c-0.024,0 -0.089,0 -0.164,-0.015c-0.08,-0.02 -0.15,-0.029 -0.205,-0.029c-0.104,-0.001 -0.209,0.03 -0.289,0.089c-0.065,0.065 -0.099,0.14 -0.099,0.239c0,0.095 0.064,0.22 0.209,0.359c0.02,0.02 0.04,0.045 0.05,0.05l0.025,0.03c0.124,0.124 0.209,0.229 0.209,0.274c0,0.035 -0.02,0.07 -0.055,0.1c-0.029,0.03 -0.064,0.04 -0.104,0.04c-0.085,0 -0.165,-0.04 -0.234,-0.11c-0.06,-0.065 -0.1,-0.179 -0.13,-0.304l-0.065,0c-0.01,0.089 -0.025,0.179 -0.03,0.254c-0.005,0.085 -0.03,0.16 -0.035,0.24c0.02,0 0.035,-0.016 0.055,-0.016c0.03,0 0.045,0 0.075,0.001c0.035,-0.001 0.095,0.014 0.174,0.024c0.1,0.025 0.15,0.03 0.19,0.03c0.12,0 0.234,-0.035 0.304,-0.104c0.085,-0.085 0.119,-0.179 0.119,-0.324c0,-0.105 -0.089,-0.24 -0.243,-0.394c-0.021,-0.02 -0.06,-0.055 -0.07,-0.06c-0.061,-0.07 -0.095,-0.105 -0.11,-0.134c-0.02,-0.02 -0.02,-0.045 -0.02,-0.07c0,-0.025 0.005,-0.075 0.035,-0.09c0.02,-0.025 0.054,-0.035 0.09,-0.035c0.074,0 0.129,0.025 0.189,0.08c0.04,0.07 0.07,0.144 0.089,0.239l0.061,0c-0.001,-0.065 0.014,-0.129 0.019,-0.184c0.015,-0.065 0.025,-0.125 0.025,-0.18Z" style="fill:#1f419a;"/><path d="M32.39,19.565l-0.623,0.124l0,0.07c0.005,0 0.009,0 0.024,0c0.03,0 0.046,0 0.05,0c0.051,0 0.06,0 0.075,0.01c0.015,0.01 0.015,0.02 0.015,0.045c0,0 0,0.015 0,0.044c-0.005,0.025 -0.015,0.055 -0.015,0.09l-0.144,0.513c0,0.016 0,0.02 0,0.036c-0.03,0.089 -0.035,0.154 -0.035,0.204c0,0.045 0.02,0.095 0.055,0.124c0.034,0.02 0.089,0.04 0.139,0.04c0.1,0 0.195,-0.035 0.279,-0.104c0.075,-0.09 0.14,-0.2 0.214,-0.349l-0.074,-0.04c-0.02,0.065 -0.05,0.105 -0.08,0.144c-0.025,0.03 -0.055,0.055 -0.08,0.055c-0.009,0 -0.015,-0.01 -0.025,-0.025c-0.01,-0.01 -0.02,-0.02 -0.019,-0.035c-0.001,-0.015 0,-0.03 -0.001,-0.034c0.011,-0.015 0.01,-0.03 0.02,-0.05l0.225,-0.862Z" style="fill:#1f419a;"/><path d="M32.245,18.896c-0.05,0 -0.105,0.02 -0.139,0.06c-0.035,0.055 -0.055,0.1 -0.055,0.155c0,0.05 0.02,0.104 0.055,0.139c0.034,0.035 0.089,0.055 0.139,0.055c0.055,0 0.1,-0.02 0.155,-0.054c0.04,-0.036 0.06,-0.09 0.06,-0.14c-0.001,-0.055 -0.021,-0.1 -0.061,-0.155c-0.054,-0.04 -0.099,-0.06 -0.154,-0.06Z" style="fill:#1f419a;"/><path d="M32.993,20.302c0.269,0 0.473,-0.035 0.633,-0.124c0.15,-0.075 0.219,-0.205 0.219,-0.355c0,-0.069 -0.025,-0.144 -0.09,-0.189c-0.069,-0.04 -0.159,-0.07 -0.269,-0.07c-0.099,0 -0.204,0.015 -0.299,0.05c-0.085,0.05 -0.169,0.09 -0.249,0.175c-0.115,0.094 -0.209,0.219 -0.259,0.319c-0.04,0.099 -0.07,0.224 -0.07,0.348c0,0.13 0.035,0.23 0.105,0.305c0.09,0.07 0.189,0.104 0.338,0.104c0.12,0 0.245,-0.035 0.344,-0.099c0.11,-0.065 0.215,-0.18 0.31,-0.329l-0.06,-0.045c-0.055,0.085 -0.14,0.144 -0.21,0.189c-0.049,0.035 -0.124,0.055 -0.194,0.055c-0.085,0 -0.14,-0.02 -0.189,-0.065c-0.04,-0.055 -0.075,-0.124 -0.075,-0.204c0,-0.01 0,-0.03 0,-0.035c0,-0.01 0.015,-0.025 0.015,-0.03Z" style="fill:#1f419a;"/><path d="M34.553,19.569l-0.549,0.125l0.001,0.07c0,0 0.01,0 0.015,0c0.029,-0.005 0.049,-0.005 0.074,-0.005c0.02,0 0.045,0.005 0.055,0.005c0.015,0.02 0.025,0.03 0.025,0.05c0,0.014 -0.01,0.049 -0.03,0.119l0,0.02l-0.194,0.882l0.349,0l0.124,-0.543c0.055,-0.124 0.105,-0.214 0.165,-0.279c0.05,-0.08 0.09,-0.1 0.119,-0.099c0.005,0 0.021,0.009 0.04,0.039c0.025,0.04 0.06,0.06 0.115,0.06c0.06,0 0.11,-0.025 0.15,-0.09c0.044,-0.06 0.069,-0.109 0.069,-0.184c0,-0.065 -0.025,-0.1 -0.054,-0.125c-0.025,-0.035 -0.055,-0.045 -0.095,-0.045c-0.085,0.001 -0.155,0.035 -0.225,0.12c-0.069,0.075 -0.159,0.224 -0.259,0.409l0.105,-0.529Z" style="fill:#1f419a;"/><path d="M15.078,19.898l-0.099,0.339c-0.07,0.14 -0.15,0.24 -0.215,0.299c-0.054,0.055 -0.094,0.085 -0.139,0.085c-0.055,0 -0.09,-0.02 -0.11,-0.055c-0.03,-0.035 -0.035,-0.089 -0.035,-0.144c0,-0.06 0.005,-0.14 0.03,-0.22c0.01,-0.074 0.04,-0.144 0.09,-0.234c0.025,-0.05 0.06,-0.105 0.079,-0.14c0.031,-0.05 0.061,-0.089 0.095,-0.119c0.025,-0.025 0.045,-0.04 0.075,-0.06c0.035,-0.01 0.06,-0.01 0.075,-0.01c0.05,0 0.085,0.025 0.104,0.065c0.031,0.035 0.05,0.105 0.051,0.179l-0.001,0.015Z" style="fill:#fff200;"/><path d="M19.928,20.83c0.22,0.065 0.354,0.125 0.424,0.165c0.07,0.05 0.115,0.1 0.115,0.139c0,0.046 -0.025,0.1 -0.09,0.135c-0.055,0.035 -0.125,0.055 -0.214,0.055c-0.11,0 -0.195,-0.03 -0.264,-0.07c-0.06,-0.05 -0.09,-0.109 -0.09,-0.189c0,-0.045 0.005,-0.09 0.03,-0.145c0.025,-0.034 0.054,-0.06 0.089,-0.09Z" style="fill:#fff200;"/><path d="M20.392,19.654c0.025,0 0.06,0.005 0.075,0.035c0.03,0.025 0.034,0.045 0.035,0.08c-0.001,0.065 -0.02,0.149 -0.04,0.229c-0.031,0.085 -0.07,0.165 -0.105,0.229c-0.02,0.03 -0.05,0.06 -0.08,0.07c-0.009,0.025 -0.044,0.03 -0.075,0.03c-0.024,0 -0.055,-0.005 -0.059,-0.035c-0.025,-0.02 -0.03,-0.055 -0.03,-0.094c0,-0.085 0.02,-0.165 0.04,-0.275c0.045,-0.09 0.08,-0.159 0.124,-0.209c0.015,-0.025 0.03,-0.045 0.05,-0.045c0.03,-0.015 0.045,-0.015 0.065,-0.015Z" style="fill:#fff200;"/><path d="M25.621,20.232c0.054,-0.159 0.12,-0.294 0.199,-0.418c0.085,-0.095 0.154,-0.15 0.229,-0.15c0.025,0 0.045,0.005 0.05,0.01c0.02,0.025 0.02,0.05 0.02,0.08c0,0.05 -0.005,0.109 -0.045,0.194c-0.035,0.06 -0.069,0.12 -0.134,0.165c-0.04,0.049 -0.095,0.079 -0.14,0.089c-0.059,0.025 -0.115,0.03 -0.179,0.03Z" style="fill:#fff200;"/><path d="M29.967,19.898l-0.099,0.339c-0.07,0.14 -0.15,0.24 -0.215,0.299c-0.055,0.055 -0.094,0.085 -0.139,0.085c-0.055,0 -0.09,-0.02 -0.11,-0.055c-0.03,-0.035 -0.035,-0.089 -0.035,-0.144c0,-0.06 0.005,-0.14 0.03,-0.22c0.01,-0.075 0.04,-0.144 0.09,-0.234c0.025,-0.05 0.059,-0.105 0.079,-0.139c0.03,-0.051 0.06,-0.09 0.095,-0.12c0.025,-0.025 0.045,-0.04 0.075,-0.06c0.035,-0.01 0.06,-0.01 0.075,-0.01c0.049,0 0.085,0.025 0.105,0.065c0.029,0.035 0.049,0.105 0.049,0.179l0,0.015Z" style="fill:#fff200;"/><path d="M33.018,20.232c0.055,-0.159 0.119,-0.294 0.199,-0.418c0.085,-0.095 0.155,-0.15 0.229,-0.15c0.025,0 0.045,0.005 0.05,0.01c0.02,0.025 0.02,0.05 0.02,0.08c0,0.05 -0.005,0.109 -0.045,0.194c-0.035,0.06 -0.07,0.12 -0.134,0.165c-0.04,0.049 -0.095,0.08 -0.14,0.089c-0.06,0.025 -0.114,0.03 -0.179,0.03Z" style="fill:#fff200;"/><path d="M24.155,15.227l1.042,-3.947c0.035,-0.1 0.055,-0.144 0.1,-0.189c0.025,-0.015 0.124,-0.05 0.289,-0.085l0.055,-0.02l0.02,-0.055l0.08,-0.269l-0.285,0l0,-0.015l0.095,-0.284l-2.791,0l-0.095,0.219l-0.025,0.1l0.105,0.025c0.074,0.025 0.114,0.034 0.149,0.059l-0.035,0.115l-0.025,0.085l0.09,0.03l-1.037,3.967c-0.02,0.125 -0.04,0.16 -0.069,0.18c-0.056,0.035 -0.16,0.065 -0.3,0.085l-0.074,0.014l-0.005,0.06l-0.065,0.295l0.249,-0.001l-0.055,0.285l2.801,0l0.05,-0.244l0.02,-0.095l-0.089,-0.015c-0.065,-0.03 -0.11,-0.035 -0.16,-0.055l0.05,-0.125l0.02,-0.099l-0.105,-0.021Z" style="fill:#fff;"/><path d="M38.77,10.796c-0.05,0.075 -0.105,0.115 -0.199,0.185l-0.719,0.563l-0.313,-0.409c-0.005,-0.02 -0.005,-0.034 -0.005,-0.04l-0.01,0l0,-0.024c-0.02,-0.006 -0.02,-0.021 -0.02,-0.025c0.01,-0.01 0.02,-0.015 0.05,-0.03c0.039,-0.015 0.085,-0.025 0.139,-0.025l0.155,0l0.09,-0.334l-0.274,0l0.084,-0.309l-3.28,0l-0.065,0.229l-0.024,0.115l0.094,0.01c0.05,0.015 0.1,0.03 0.155,0.059l-0.03,0.115l-0.035,0.1l0.099,0.015c0.15,0.025 0.285,0.124 0.414,0.299l0.025,0.01l0.02,0.015l1.077,1.525l-3.43,2.687l-0.074,-0.01c-0.07,-0.015 -0.125,-0.03 -0.155,-0.035l0.03,-0.14l0.02,-0.099l-0.06,-0.015l1.012,-3.948c0.03,-0.11 0.07,-0.15 0.1,-0.179c0.035,-0.03 0.11,-0.055 0.279,-0.085l0.045,-0.015l0.025,-0.045l0.11,-0.314l-0.295,0l0.115,-0.299l-2.622,0l-0.08,0.259l-0.02,0.095l0.1,0.03c0.075,0.005 0.124,0.025 0.145,0.039l-0.021,0.125l-0.029,0.09l0.089,0.02l-0.463,1.679l-1.356,-1.585c-0.005,0.001 -0.005,-0.014 -0.005,-0.025l0.005,-0.004l-0.005,-0.02c0.04,-0.015 0.09,-0.03 0.15,-0.035l0.065,-0.01l0.019,-0.06l0.075,-0.299l-0.269,0l0.065,-0.299l-3.345,0l-0.085,0.259l-0.03,0.1l0.1,0.029c0.09,0.016 0.13,0.03 0.16,0.035l-0.035,0.125l-0.03,0.1l0.08,0.02l-1.017,3.947c-0.02,0.13 -0.05,0.165 -0.07,0.18c-0.06,0.035 -0.159,0.065 -0.299,0.09l-0.075,0.01l-0.005,0.059l-0.065,0.285l0.25,-0.001l0,0.011l-0.055,0.284l2.542,0l0.065,-0.234l0.015,-0.115l-0.1,-0.01c-0.06,-0.015 -0.105,-0.03 -0.144,-0.05l0.039,-0.125l0.015,-0.1l-0.094,-0.015l0.657,-2.547l1.925,2.284l0,0.014c0,0.015 0.009,0.036 0.009,0.045c0.001,0.02 -0.009,0.025 -0.009,0.045l-0.005,0.01l0,0.01c0,0.025 -0.015,0.035 -0.055,0.06c-0.055,0.035 -0.125,0.06 -0.229,0.079l-0.055,0.015l-0.02,0.055l-0.065,0.284l0.259,0.001l0,0.01l-0.06,0.284l2.408,0l-0.429,0.339l-0.009,0.01c-0.195,0.174 -0.42,0.268 -0.604,0.303l-0.065,0.016l-0.02,0.059l-0.055,0.31l0.25,0l-0.06,0.284l3.903,0l0.069,-0.384l-0.179,0l-0.02,0c0.02,-0.06 0.085,-0.15 0.199,-0.275l2.009,-2.113l0.459,0.663c0.025,0.03 0.035,0.05 0.035,0.065c0,0.015 -0.025,0.02 -0.045,0.035c-0.025,0.015 -0.065,0.03 -0.14,0.03l-0.114,0l-0.08,0.363l0.254,0l-0.06,0.295l3.275,0l0.04,-0.234l0.03,-0.115l-0.095,-0.011c-0.06,-0.015 -0.109,-0.029 -0.159,-0.049l0.035,-0.125l0.02,-0.1l-0.09,-0.015c-0.105,-0.024 -0.194,-0.054 -0.214,-0.079l-0.015,-0.01l-0.005,0c-0.04,-0.025 -0.04,-0.035 -0.065,-0.07c-0.01,-0.025 -0.025,-0.045 -0.045,-0.074l-1.446,-2.014l2.069,-1.68l0.01,-0.005c0,0 0.02,0 0.025,-0.005c0.194,-0.16 0.404,-0.274 0.593,-0.309l0.04,-0.005l0.02,-0.055l0.08,-0.279l-0.279,0l0,-0.005l0.089,-0.294l-2.941,0l-0.074,0.359l0.194,0c0.025,-0.001 0.04,0.015 0.06,0.014l-0.02,0.08Z" style="fill:#fff;"/><path d="M14.012,10.941l-0.105,0.16l0.194,0.074l0.315,0.125l1.819,-2.154l-0.334,-0.134l0.144,-0.16l-0.428,-0.174l-0.135,-0.04l-0.07,0.1c-0.035,0.035 -0.079,0.069 -0.109,0.075c-0.03,0.014 -0.09,0.025 -0.175,0.025c-0.075,-0.005 -0.493,-0.1 -1.276,-0.285c-0.822,-0.194 -1.63,-0.299 -2.437,-0.298c-1.291,-0.001 -2.388,0.209 -3.315,0.642c-0.922,0.414 -1.52,0.972 -1.715,1.7c-0.054,0.155 -0.069,0.319 -0.069,0.474c0,0.314 0.104,0.593 0.314,0.812c0.109,0.259 0.329,0.473 0.628,0.643c0.623,0.344 1.585,0.528 2.916,0.568c0.025,0 0.055,0.005 0.089,0.005c0.04,0 0.11,0.015 0.19,0.015c0.992,0.02 1.535,0.14 1.799,0.284l0,0.01c-0.055,0.185 -0.224,0.359 -0.648,0.514c-0.389,0.144 -0.922,0.224 -1.575,0.224c-0.932,0 -1.719,-0.105 -2.373,-0.334c-0.269,-0.105 -0.473,-0.184 -0.583,-0.264l0,-0.01l0.215,-0.179l-0.25,-0.12l-0.089,-0.05l0.159,-0.125l-0.249,-0.114l-0.324,-0.14l-2.049,2.432l0.329,0.13l-0.134,0.16l0.408,0.164l0.09,0.04l0.085,-0.055c0,-0.01 0.01,-0.01 0.01,-0.01c0.13,-0.09 0.214,-0.14 0.234,-0.149c0.03,-0.03 0.04,-0.03 0.055,-0.03c0.01,0 0.055,0.02 0.11,0.035c0.025,0.005 0.05,0.02 0.08,0.035c1.201,0.383 2.552,0.563 4.111,0.563c1.351,0 2.533,-0.224 3.5,-0.693c0.972,-0.469 1.615,-1.072 1.829,-1.844c0.04,-0.19 0.07,-0.374 0.07,-0.534c0,-0.349 -0.1,-0.648 -0.314,-0.887c-0.12,-0.239 -0.304,-0.434 -0.548,-0.588c-0.559,-0.354 -1.561,-0.568 -2.927,-0.633c-0.094,0 -0.219,-0.005 -0.378,-0.005c-0.06,0 -0.11,-0.015 -0.174,-0.015c-0.883,-0.02 -1.381,-0.105 -1.651,-0.204c0.09,-0.09 0.25,-0.195 0.519,-0.285c0.423,-0.124 0.952,-0.209 1.585,-0.209c0.787,0 1.445,0.095 2.043,0.245c0.175,0.054 0.32,0.104 0.419,0.149c0,0.005 0,0.005 -0.01,0.01l-0.109,0.184l0.189,0.075l0.105,0.05Z" style="fill:#fff;"/><path d="M31.204,16.823l-0.08,-0.05l-0.798,-0.01l0.244,0.159l0.603,0l-0.005,0.005l3.908,0l0.08,-0.383l-0.194,0l-0.025,0c0.035,-0.06 0.094,-0.15 0.214,-0.274l2.009,-2.114l0.563,0.792l0,0.01l0.005,0.01c0.089,0.115 0.115,0.18 0.115,0.2c0,0.015 -0.025,0.02 -0.05,0.045c-0.015,0.005 -0.065,0.02 -0.135,0.02l-0.124,0l-0.075,0.374l3.265,0l0.065,-0.235l0.019,-0.114l-0.104,-0.011c-0.11,-0.029 -0.18,-0.059 -0.2,-0.084l-0.019,-0.01l-0.01,0c-0.035,-0.025 -0.035,-0.035 -0.06,-0.06c-0.01,-0.035 -0.03,-0.055 -0.06,-0.085l-1.645,-2.288l2.084,-1.689l0.015,-0.005c0.01,0 0.015,0 0.02,-0.005c0.189,-0.16 0.398,-0.274 0.593,-0.309l0.055,-0.005l0.004,-0.055l0.085,-0.279l-2.926,0l-0.089,0.349l0.194,0c0.04,0 0.075,0.01 0.09,0.019c-0.005,0.02 -0.03,0.041 -0.05,0.085c-0.055,0.06 -0.11,0.11 -0.209,0.185l-0.708,0.558l-0.404,-0.543c-0.08,-0.09 -0.11,-0.16 -0.115,-0.2l-0.01,0l0,-0.024c-0.005,-0.006 -0.005,-0.021 -0.005,-0.026c0,-0.01 0.005,-0.015 0.035,-0.029c0.05,-0.015 0.09,-0.025 0.14,-0.025l0.16,0l0.094,-0.334l-3.275,0l-0.08,0.219l-0.03,0.1l0.12,0.015c0.14,0.025 0.264,0.124 0.404,0.299l0.02,0.01l0.015,0.015l1.276,1.829l-4.297,3.364l-0.005,0.015c-0.194,0.16 -0.409,0.255 -0.598,0.29l-0.07,0.029l-0.02,0.06l-0.019,0.19Z" style="fill:#1f419a;"/><path d="M13.907,10.911l0.304,0.125l1.834,-2.154l-0.428,-0.169l-0.135,-0.045l-0.07,0.095c-0.035,0.05 -0.079,0.074 -0.11,0.084c-0.029,0.015 -0.089,0.025 -0.174,0.025c-0.075,-0.01 -0.493,-0.109 -1.276,-0.299c-0.823,-0.194 -1.63,-0.294 -2.437,-0.294c-1.291,0 -2.388,0.205 -3.315,0.638c-0.922,0.429 -1.52,0.977 -1.715,1.71c-0.054,0.159 -0.07,0.314 -0.069,0.464c0,0.503 0.254,0.892 0.742,1.171c0.628,0.344 1.59,0.528 2.926,0.568c0.02,0 0.045,0.005 0.09,0.005c0.05,0 0.105,0.015 0.174,0.015c1.565,0.045 2.009,0.299 2.009,0.514c0,0.024 -0.005,0.034 -0.005,0.064c-0.055,0.19 -0.224,0.374 -0.648,0.514c-0.389,0.145 -0.922,0.224 -1.575,0.224c-0.932,0 -1.719,-0.105 -2.373,-0.329c-0.648,-0.219 -0.792,-0.409 -0.792,-0.493c0,-0.005 0,-0.015 0.015,-0.035c0.005,-0.005 0.005,-0.026 0.005,-0.035l0.224,-0.179l-0.249,-0.121l-0.324,-0.144l-2.049,2.438l0.419,0.164l0.09,0.04l0.069,-0.055c0,-0.01 0.015,-0.01 0.02,-0.01c0.125,-0.089 0.195,-0.139 0.225,-0.15c0.024,-0.03 0.054,-0.03 0.059,-0.029c0.016,0 0.04,0.02 0.105,0.034c0.03,0.006 0.055,0.021 0.085,0.035c1.201,0.384 2.557,0.564 4.107,0.564c1.341,0 2.538,-0.225 3.504,-0.694c0.957,-0.468 1.61,-1.071 1.82,-1.843c0.064,-0.19 0.085,-0.374 0.084,-0.534c0,-0.518 -0.244,-0.907 -0.673,-1.191c-0.558,-0.349 -1.56,-0.563 -2.925,-0.633c-0.095,0 -0.219,-0.005 -0.379,-0.005c-0.06,0 -0.11,-0.015 -0.175,-0.015c-1.525,-0.05 -1.924,-0.264 -1.924,-0.349l0,-0.005c0.03,-0.125 0.195,-0.284 0.614,-0.418c0.408,-0.125 0.937,-0.21 1.575,-0.21c0.782,0 1.45,0.095 2.033,0.244c0.494,0.135 0.653,0.249 0.693,0.319c-0.005,0.01 -0.025,0.03 -0.035,0.05c-0.005,0.015 -0.015,0.035 -0.035,0.065c-0.005,0.005 -0.005,0.01 -0.015,0.02l-0.109,0.174l0.189,0.075Z" style="fill:#1f419a;"/><path d="M16.12,11.006l-1.096,3.957c-0.03,0.125 -0.05,0.16 -0.07,0.18c-0.065,0.035 -0.17,0.065 -0.319,0.085l-0.07,0.014l-0.02,0.06l-0.065,0.295l0.26,0l-0.065,0.284l2.926,0l0.049,-0.244l0.02,-0.095l-0.095,-0.015c-0.064,-0.03 -0.119,-0.035 -0.149,-0.055l0.03,-0.125l0.025,-0.099l-0.095,-0.02l0.319,-1.202l0.912,0.001c1.077,0 1.91,-0.125 2.473,-0.384c0.563,-0.26 0.942,-0.688 1.101,-1.271c0.035,-0.15 0.055,-0.28 0.055,-0.404c0,-0.295 -0.089,-0.528 -0.279,-0.723c-0.07,-0.169 -0.195,-0.319 -0.369,-0.443c-0.394,-0.315 -1.017,-0.439 -1.864,-0.439l-3.823,0l-0.075,0.219l-0.035,0.1l0.105,0.025c0.084,0.025 0.124,0.034 0.164,0.059l-0.04,0.115l-0.034,0.085l0.119,0.03c0,0 0.005,0 0.005,0.01Z" style="fill:#fff;"/><path d="M17.516,15.497l-0.035,0.189l-2.762,0l-0.039,0.195l2.921,0l0.055,-0.245l0.024,-0.094l-0.094,-0.015c-0.02,-0.015 -0.035,-0.015 -0.07,-0.03Z" style="fill:#1f419a;"/><path d="M17.511,13.752l0.897,0c1.097,0 1.939,-0.124 2.488,-0.383c0.573,-0.26 0.946,-0.689 1.101,-1.272c0.035,-0.149 0.06,-0.279 0.06,-0.403c0,-0.369 -0.155,-0.653 -0.459,-0.882c-0.394,-0.31 -1.017,-0.424 -1.864,-0.424l-3.823,0l-0.075,0.219l-0.035,0.085l0.105,0.03c0.159,0.044 0.224,0.079 0.229,0.094c0.015,0 0.02,0 0.02,0.05c0,0.025 -0.005,0.05 -0.02,0.095l-1.111,4.013c-0.03,0.124 -0.05,0.159 -0.07,0.179c-0.065,0.035 -0.17,0.065 -0.319,0.1l-0.07,0.005l-0.02,0.064l-0.065,0.285l2.921,-0.001l0.055,-0.244l0.025,-0.094l-0.095,-0.015c-0.134,-0.035 -0.189,-0.055 -0.214,-0.075l0,-0.01l-0.015,-0.015c0,0 -0.015,-0.01 -0.015,-0.04c0,-0.015 0,-0.04 0.02,-0.075l0.349,-1.286Z" style="fill:#1f419a;"/><path d="M18.104,11.599l0.658,0c0.583,0 0.942,0.035 1.126,0.105c0.055,0.02 0.12,0.124 0.12,0.263c0,0.041 -0.005,0.061 -0.005,0.08c-0.035,0.15 -0.189,0.379 -0.399,0.454c-0.229,0.07 -0.593,0.105 -1.121,0.105l-0.658,0l0.279,-1.007Z" style="fill:#fff;"/><path d="M19.968,11.968c0,0.04 0,0.06 -0.005,0.079c-0.03,0.15 -0.189,0.379 -0.389,0.454c-0.224,0.07 -0.613,0.105 -1.121,0.105l-0.389,0l0.195,-0.718l0.653,0c0.523,0 0.862,0.03 1.056,0.08Z" style="fill:#fff200;"/><path d="M23.941,15.038l1.067,-4.032c0.029,-0.1 0.045,-0.145 0.094,-0.19c0.03,-0.015 0.13,-0.05 0.284,-0.084l0.06,-0.02l0.01,-0.055l0.095,-0.269l-2.791,0l-0.095,0.219l-0.025,0.085l0.105,0.03c0.144,0.044 0.184,0.074 0.214,0.089c0,0 0.005,0.005 0.005,0.05c0,0.03 -0.005,0.055 -0.02,0.1l-1.057,4.013c-0.02,0.124 -0.04,0.159 -0.07,0.179c-0.054,0.035 -0.159,0.065 -0.299,0.1l-0.074,0.005l-0.005,0.064l-0.065,0.285l2.801,0l0.065,-0.245l0.02,-0.094l-0.115,-0.015c-0.109,-0.035 -0.159,-0.055 -0.184,-0.075l0,-0.01l-0.02,-0.016c0,0 -0.01,0.001 -0.01,-0.039c0,-0.015 0,-0.04 0.01,-0.075Z" style="fill:#1f419a;"/><path d="M29.763,10.373l-3.345,0l-0.085,0.249l-0.03,0.1l0.1,0.02c0.13,0.035 0.175,0.06 0.195,0.074c0.005,0 0.02,0.015 0.02,0.05c0,0.035 -0.015,0.06 -0.02,0.095l-1.037,4.033c-0.02,0.104 -0.05,0.139 -0.07,0.159c-0.06,0.035 -0.159,0.065 -0.299,0.1l-0.075,0.004l-0.005,0.065l-0.065,0.285l2.553,-0.001l0.059,-0.244l0.015,-0.094l-0.105,-0.015c-0.094,-0.035 -0.149,-0.055 -0.179,-0.075l-0.005,-0.01l-0.025,-0.015c-0.004,0 -0.01,-0.01 -0.01,-0.04c0,-0.015 0.005,-0.04 0.01,-0.075l0.688,-2.641l2.109,2.521c0,0.016 0.005,0.03 0.005,0.056l0,0.019l0,0.015c0,0.006 0.009,0.02 0.01,0.035c-0.001,0.005 -0.01,0.03 -0.01,0.035l-0.005,0.015l0,0.015c0,0.005 -0.015,0.035 -0.055,0.055c-0.055,0.035 -0.125,0.055 -0.229,0.09l-0.055,0.005l-0.02,0.064l-0.065,0.285l2.781,-0.001l0.055,-0.244l0.02,-0.094l-0.09,-0.015c-0.109,-0.03 -0.159,-0.055 -0.179,-0.065l-0.015,-0.02c0,0 -0.02,-0.015 -0.02,-0.055c0,-0.015 0.005,-0.04 0.02,-0.075l1.057,-4.032c0.02,-0.1 0.039,-0.145 0.069,-0.17c0.036,-0.025 0.12,-0.055 0.284,-0.095l0.055,-0.009l0.02,-0.045l0.13,-0.314l-2.622,0l-0.08,0.244l-0.02,0.095l0.1,0.02c0.14,0.045 0.194,0.07 0.199,0.084c0,0 0.01,0.015 0.01,0.05c0,0.035 -0.01,0.05 -0.009,0.09l-0.479,1.74l-1.51,-1.755c-0.01,-0.025 -0.04,-0.105 -0.04,-0.13l0,-0.009l0,-0.021c0.034,-0.015 0.089,-0.039 0.129,-0.049l0.07,0l0.03,-0.06l0.065,-0.299Z" style="fill:#1f419a;"/><path d="M16,9.077l-1.744,2.073l-0.284,-0.104l-0.055,0.084l0.189,0.07l0.309,0.13l1.83,-2.153l-0.245,-0.1Z" style="fill:#1f419a;"/><path d="M12.148,13.403c0,-0.005 0,-0.02 0,-0.02c0,-0.084 -0.299,-0.368 -1.91,-0.418c-0.024,0 -0.069,-0.005 -0.099,-0.005c-0.035,0 -0.05,-0.01 -0.075,-0.01c-0.03,0 -0.05,0 -0.065,0l-0.025,0c-1.351,-0.045 -2.332,-0.235 -2.966,-0.583c-0.06,-0.035 -0.109,-0.06 -0.164,-0.11c0.104,0.124 0.244,0.229 0.419,0.324c0.618,0.329 1.57,0.528 2.896,0.573c0.034,0 0.064,0 0.1,0c0.039,0.005 0.114,0.005 0.179,0.005c0.897,0.03 1.426,0.139 1.71,0.244Z" style="fill:#1f419a;"/><path d="M7.058,13.283l-0.084,0.05l0,0.02c0,0.005 0.04,0.07 0.189,0.16l0.15,-0.12l-0.255,-0.11Z" style="fill:#1f419a;"/><path d="M15.138,12.461c0.015,0.1 0.025,0.195 0.025,0.294c0,0.18 -0.029,0.369 -0.095,0.568c-0.219,0.813 -0.897,1.446 -1.874,1.91c-0.972,0.463 -2.168,0.697 -3.534,0.698c-1.57,0 -2.941,-0.19 -4.147,-0.564c-0.02,-0.005 -0.045,-0.02 -0.05,-0.03c-0.015,0 -0.03,0 -0.035,-0.005c-0.03,-0.005 -0.055,-0.02 -0.069,-0.02l-0.015,0c-0.015,0.015 -0.08,0.055 -0.21,0.145l-0.01,0.01l-0.01,0l-0.124,0.09l-0.13,-0.065l-0.124,-0.04l-0.065,0.08l0.418,0.164l0.09,0.04l0.07,-0.055c0,-0.01 0.015,-0.01 0.02,-0.01c0.124,-0.09 0.194,-0.139 0.224,-0.149c0.025,-0.03 0.055,-0.03 0.06,-0.03c0.015,0 0.04,0.02 0.105,0.035c0.03,0.005 0.055,0.02 0.084,0.035c1.202,0.383 2.558,0.563 4.108,0.563c1.341,0 2.537,-0.224 3.504,-0.693c0.957,-0.469 1.61,-1.072 1.819,-1.844c0.065,-0.19 0.085,-0.374 0.085,-0.534c0,-0.219 -0.035,-0.413 -0.12,-0.593Z" style="fill:#1f419a;"/><path d="M13.723,10.607l0.01,-0.015c0,0 0.005,-0.005 0.005,-0.015l0.004,-0.005c0.015,-0.025 0.025,-0.025 0.026,-0.04c-0.07,-0.05 -0.23,-0.12 -0.599,-0.239c-0.573,-0.149 -1.216,-0.22 -2.018,-0.22c-0.613,0 -1.127,0.06 -1.531,0.185c-0.353,0.125 -0.493,0.254 -0.533,0.329c0.035,0.025 0.105,0.055 0.244,0.09c0.095,-0.07 0.249,-0.155 0.449,-0.215c0.414,-0.134 0.957,-0.214 1.58,-0.214c0.772,0 1.446,0.09 2.029,0.249c0.149,0.035 0.244,0.08 0.334,0.11Z" style="fill:#1f419a;"/><path d="M22.127,11.494c0.009,0.065 0.009,0.13 0.009,0.2c0,0.144 -0.015,0.274 -0.05,0.428c-0.178,0.613 -0.573,1.062 -1.161,1.336c-0.568,0.269 -1.425,0.394 -2.522,0.394l-0.828,0l-0.344,1.211c-0.004,0.02 -0.004,0.035 -0.004,0.05c0.02,0.005 0.064,0.02 0.159,0.04l0.314,-1.107l0.897,0c1.092,0 1.92,-0.124 2.488,-0.378c0.563,-0.275 0.927,-0.688 1.086,-1.266c0.04,-0.16 0.06,-0.285 0.06,-0.424c0,-0.17 -0.04,-0.334 -0.104,-0.484Z" style="fill:#1f419a;"/><path d="M16.02,11.001l0.015,-0.065c0.006,-0.025 0.005,-0.04 0.005,-0.055l-0.005,0.02l-0.035,0.1l0.02,0Z" style="fill:#1f419a;"/><path d="M25.561,10.672l-0.01,0.02l-0.025,0.104l-0.11,0.035c-0.164,0.035 -0.244,0.06 -0.254,0.07c-0.005,0.01 -0.035,0.025 -0.06,0.125l-1.066,4.037c-0.005,0.02 -0.005,0.035 -0.005,0.05l0.005,0.005c0.024,0.005 0.064,0.015 0.149,0.035l1.022,-3.843c0.025,-0.105 0.045,-0.16 0.09,-0.189c0.025,-0.02 0.129,-0.05 0.284,-0.105l0.069,-0.005l0.02,-0.065l0.071,-0.274l-0.18,0Z" style="fill:#1f419a;"/><path d="M24.265,15.497l-0.035,0.189l-2.642,0l-0.04,0.194l2.802,0l0.064,-0.244l0.02,-0.094l-0.114,-0.015c-0.02,-0.015 -0.035,-0.015 -0.055,-0.03Z" style="fill:#1f419a;"/><path d="M33.92,10.672l-0.025,0.05l-0.035,0.109l-0.1,0.015c-0.164,0.035 -0.224,0.065 -0.254,0.075c0,0 -0.02,0.025 -0.034,0.105l-1.057,4.037c-0.005,0.035 -0.006,0.06 -0.005,0.065c0.019,0.005 0.064,0.015 0.119,0.03l0.04,0.005l1.002,-3.858c0.025,-0.1 0.05,-0.145 0.075,-0.16c0.035,-0.03 0.12,-0.065 0.279,-0.109l0.055,-0.01l0.02,-0.04l0.124,-0.314l-0.204,0Z" style="fill:#1f419a;"/><path d="M29.803,10.642l-0.01,0.04l-0.035,0.124l-0.14,0.025c-0.01,0 -0.02,0 -0.04,0.005c0,0.005 0.005,0.03 0.005,0.035l0.155,0.16c0.02,0 0.04,-0.005 0.07,-0.02l0.065,0l0.025,-0.065l0.084,-0.304l-0.179,0Z" style="fill:#1f419a;"/><path d="M27.714,15.497l-0.035,0.189l-2.392,0l-0.04,0.194l2.552,0l0.06,-0.244l0.015,-0.094l-0.105,-0.015c-0.02,0 -0.035,-0.015 -0.055,-0.03Z" style="fill:#1f419a;"/><path d="M28.218,12.76l-0.125,-0.144l-0.633,2.447c-0.005,0.02 -0.005,0.025 -0.005,0.035l0.02,0.02l0,0.005c0.02,0.01 0.065,0.025 0.125,0.03l0.009,0l0.609,-2.393Z" style="fill:#1f419a;"/><path d="M32.185,15.881l0.245,-0.195l-2.458,0l-0.04,0.195l2.253,0Z" style="fill:#1f419a;"/><path d="M35.191,16.813l-0.035,0.189l-3.753,0l-0.035,0.195l3.908,0l0.069,-0.384l-0.154,0Z" style="fill:#1f419a;"/><path d="M37.265,14.5l-0.145,-0.22l-1.924,2.039c-0.035,0.05 -0.07,0.09 -0.099,0.125l0.159,0l-0.06,0.244c0.03,-0.04 0.08,-0.09 0.125,-0.144l1.944,-2.044Z" style="fill:#1f419a;"/><path d="M40.833,15.497l-0.034,0.189l-3.121,0l-0.035,0.195l3.265,0l0.05,-0.245l0.015,-0.094l-0.075,-0.015c-0.03,0 -0.045,-0.015 -0.065,-0.03Z" style="fill:#1f419a;"/><path d="M41.566,10.647l0,0.02l-0.03,0.105l-0.109,0.039c-0.16,0.05 -0.349,0.12 -0.539,0.274c-0.005,0 -0.02,0.02 -0.035,0.02l-0.01,0.005l-2.003,1.635l0.154,0.195l1.989,-1.615l0.01,-0.02c0,0 0.015,-0.005 0.03,-0.015c0.194,-0.15 0.389,-0.25 0.568,-0.284l0.055,-0.02l0.015,-0.055l0.099,-0.284l-0.194,0Z" style="fill:#1f419a;"/><path d="M37.758,10.657l-0.04,0.154l-0.224,0c-0.02,0 -0.035,0.015 -0.055,0.015c0.005,0.02 0.035,0.07 0.085,0.135l0.045,0.065c0.034,-0.005 0.069,-0.02 0.119,-0.02l0.16,0l0.09,-0.349l-0.18,0Z" style="fill:#1f419a;"/><path d="M34.777,11.031c-0.065,-0.085 -0.134,-0.145 -0.194,-0.18l0,0.02l-0.03,0.095l0.1,0.025c0.044,0.005 0.089,0.02 0.124,0.04Z" style="fill:#1f419a;"/><path d="M29.778,16.688l-1.256,-0.03l0.368,0.229l1.202,0.016l-0.314,-0.215Z" style="fill:#1f419a;"/><path d="M7.716,16.229l-4.007,-0.084l-0.04,0.02l1.161,0.738l3.928,0l-1.042,-0.674Z" style="fill:#1f419a;"/><path d="M12.571,16.349l-2.821,-0.069l0.987,0.633l2.747,-0.02l-0.913,-0.544Z" style="fill:#1f419a;"/><path d="M16.544,16.414l-2.378,-0.055l0.828,0.534l2.303,-0.006l-0.753,-0.473Z" style="fill:#1f419a;"/><path d="M19.928,16.464l-1.924,-0.04l0.703,0.464l1.854,0l-0.633,-0.424Z" style="fill:#1f419a;"/><path d="M23.004,16.553l-1.705,-0.034l0.593,0.403l1.66,0l-0.548,-0.369Z" style="fill:#1f419a;"/><path d="M25.581,16.593l-1.476,-0.034l0.514,0.339l1.41,0l-0.448,-0.305Z" style="fill:#1f419a;"/><path d="M27.814,16.663l-1.336,-0.035l0.444,0.279l1.301,0l-0.409,-0.244Z" style="fill:#1f419a;"/><path d="M39.767,10.622l0.239,0l-0.314,0.264l-0.264,0l0.339,-0.264Z" style="fill:#fff200;"/><path d="M35.176,14.42l0.663,0l-0.693,0.633l-0.728,0l0.758,-0.633Z" style="fill:#fff200;"/><path d="M36.218,13.533l0.568,0l-0.588,0.528l-0.613,0l0.633,-0.528Z" style="fill:#fff200;"/><path d="M37.135,12.8l0.488,0l-0.473,0.429l-0.528,0l0.513,-0.429Z" style="fill:#fff200;"/><path d="M37.942,12.077l0.404,0l-0.404,0.384l-0.453,0l0.453,-0.384Z" style="fill:#fff200;"/><path d="M38.655,11.524l0.334,0l-0.349,0.329l-0.388,0l0.403,-0.329Z" style="fill:#fff200;"/><path d="M39.234,11.035l0.303,0.001l-0.339,0.294l-0.318,0l0.354,-0.295Z" style="fill:#fff200;"/><path d="M33.88,15.492l0.773,0l-0.987,0.902l-0.858,0l0,-0.02l1.072,-0.882Z" style="fill:#fff200;"/><path d="M42.012,11.368l0.061,0c0.068,0 0.126,-0.025 0.126,-0.089c0,-0.046 -0.033,-0.092 -0.126,-0.092c-0.028,0 -0.046,0.002 -0.061,0.005l0,0.176ZM42.012,11.657l-0.083,0l0,-0.521c0.044,-0.007 0.085,-0.013 0.148,-0.013c0.079,0 0.13,0.017 0.162,0.039c0.031,0.023 0.047,0.059 0.048,0.108c-0.001,0.069 -0.046,0.11 -0.102,0.127l0,0.004c0.045,0.008 0.077,0.05 0.087,0.127c0.012,0.081 0.025,0.112 0.033,0.129l-0.087,0c-0.013,-0.017 -0.025,-0.065 -0.036,-0.133c-0.012,-0.067 -0.045,-0.092 -0.111,-0.092l-0.059,0l0,0.225ZM42.1,10.99c-0.206,0 -0.374,0.176 -0.374,0.395c0,0.222 0.168,0.396 0.376,0.396c0.207,0.002 0.373,-0.174 0.373,-0.394c0,-0.221 -0.165,-0.397 -0.374,-0.397l-0.001,0ZM42.101,10.917c0.256,0 0.46,0.208 0.46,0.468c0,0.263 -0.204,0.469 -0.461,0.469c-0.256,0 -0.464,-0.206 -0.464,-0.469c0,-0.26 0.208,-0.468 0.464,-0.468l0.001,0Z" style="fill:#1f419a;"/><path d="M42.012,11.368l0.061,0c0.068,0 0.126,-0.025 0.126,-0.089c0,-0.046 -0.033,-0.092 -0.126,-0.092c-0.028,0 -0.046,0.002 -0.061,0.005l0,0.176ZM42.012,11.657l-0.083,0l0,-0.521c0.044,-0.007 0.085,-0.013 0.148,-0.013c0.079,0 0.13,0.017 0.162,0.039c0.031,0.023 0.047,0.059 0.048,0.108c-0.001,0.069 -0.046,0.11 -0.102,0.127l0,0.004c0.045,0.008 0.077,0.05 0.087,0.127c0.012,0.081 0.025,0.112 0.033,0.129l-0.087,0c-0.013,-0.017 -0.025,-0.065 -0.036,-0.133c-0.012,-0.067 -0.045,-0.092 -0.111,-0.092l-0.059,0l0,0.225ZM42.1,10.99c-0.206,0 -0.374,0.176 -0.374,0.395c0,0.222 0.168,0.396 0.376,0.396c0.207,0.002 0.373,-0.174 0.373,-0.394c0,-0.221 -0.165,-0.397 -0.374,-0.397l-0.001,0ZM42.101,10.917c0.256,0 0.46,0.208 0.46,0.468c0,0.263 -0.204,0.469 -0.461,0.469c-0.256,0 -0.464,-0.206 -0.464,-0.469c0,-0.26 0.208,-0.468 0.464,-0.468l0.001,0Z" style="fill:#1f419a;"/><path d="M19.883,11.898c-0.005,-0.09 -0.039,-0.14 -0.054,-0.155c-0.165,-0.059 -0.509,-0.079 -1.107,-0.079l-0.573,0l-0.224,0.797l0.179,0l0.169,-0.613l0.658,0c0.439,0 0.738,0.015 0.952,0.05Z" style="fill:#1f419a;"/></g></g></svg>